<?xml version="1.0" encoding="UTF-8"?>
<svg xmlns="http://www.w3.org/2000/svg" version="1.1" viewBox="0 0 512 281" xml:space="preserve">
<path d="m68.716 211.7c-1e-3 2e-3 -1e-3 4e-3 -2e-3 6e-3 -0.018 0.043-0.028 0.064-0.046 0.108 0-0.037-4e-3 -0.054-0.012-0.054s-0.012-0.02-0.012-0.055c-0.131-1.107-0.196-1.66-0.327-2.768-0.047-0.724-0.202-1.537-0.466-2.44-0.264-0.905-0.576-1.803-0.934-2.715-0.357-0.911-0.743-1.73-1.154-2.392-0.412-0.662-0.79-1.005-1.131-1.04v-0.021h-0.016c-0.143 0.052-0.296 0.077-0.455 0.062-1.027-0.108-2.335-0.412-3.386-0.104-0.027 0.062-0.048 0.099-0.061 0.097-0.028-4e-3 -0.042-6e-3 -0.07-8e-3 -0.156-0.018-0.292 0.148-0.408 0.497-0.117 0.348-0.214 0.743-0.292 1.177-0.078 0.435-0.14 0.847-0.187 1.23-0.047 0.387-0.07 0.594-0.07 0.632-0.062 0.317-0.093 0.551-0.093 0.705 0 0.424 0.035 0.86 0.104 1.339 0.071 0.477 0.105 0.949 0.105 1.407 0 0.229-0.011 0.434-0.034 0.606-0.024 0.176-0.036 0.343-0.036 0.499 0 0.116 3e-3 0.226 0.012 0.322 8e-3 0.1 0.012 0.207 0.012 0.325 0 0.276-0.02 0.533-0.059 0.771s-0.059 0.519-0.059 0.835c0 0.119 0.02 0.23 0.059 0.329 0.039 0.1 0.059 0.247 0.059 0.446 0 0.289-0.026 0.587-0.067 0.889 0 0.123-0.017 0.243-0.045 0.362-0.046 0.319-0.075 0.631-0.075 0.931-0.016 0.428-0.022 0.828-0.022 1.202v1.164h0.069c0 0.037-4e-3 0.074-0.012 0.108-8e-3 0.037-0.011 0.074-0.011 0.109 0 0.072 3e-3 0.117 0.011 0.135 7e-3 0.019 0.012 0.063 0.012 0.136s-0.02 0.1-0.059 0.082c-8e-3 -4e-3 -0.017-2e-3 -0.025 2e-3v0.398c0.018 0.088 0.03 0.197 0.037 0.331 0.016 0.29 0.024 0.471 0.024 0.543 0 0.181-0.016 0.345-0.046 0.488-8e-3 0.035-0.012 0.074-0.017 0.111 0.043 0.249 0.026 0.51-0.054 0.747v1.557c0 0.523 8e-3 1.058 0.024 1.601 0 0.216-4e-3 0.426-0.012 0.624s-0.012 0.407-0.012 0.623c0 0.218 0.016 0.434 0.047 0.652 0.031 0.216 0.046 0.416 0.046 0.595 0 0.255-0.016 0.489-0.046 0.705-0.031 0.218-0.048 0.436-0.048 0.653-2e-3 0.509 0.03 1.015 0.096 1.517 0.067 0.502 0.106 1.057 0.115 1.662 0 0.049 1e-3 0.081 2e-3 0.12 0.048 0.156 0.071 0.321 0.066 0.486 0.01 0.029 0.018 0.053 0.03 0.084 0.096 0.243 0.216 0.518 0.362 0.825 0.146 0.306 0.297 0.6 0.45 0.878 0.026 0.051 0.048 0.088 0.072 0.13 0.073 0.055 0.133 0.119 0.189 0.188 0.175 0.027 0.327 0.081 0.458 0.161 0.016 2e-3 0.029 4e-3 0.043 6e-3 0.101-0.016 0.206-0.018 0.311 0 0.046 6e-3 0.094 0.012 0.141 0.018 0.039-2e-3 0.076 0 0.115-2e-3 0.142-0.012 0.274 0.012 0.4 0.053 0.768 0.045 1.582-0.039 2.252-0.38 0.444-0.226 0.815-0.545 1.17-0.885 0.132-0.24 0.267-0.407 0.417-0.499 0.164-0.099 0.347-0.257 0.532-0.461 0.212-0.617 0.278-0.907 0.399-1.488 0.019-0.074 0.035-0.148 0.051-0.225 4e-3 -0.067 0.016-0.136 0.041-0.196 0.057-0.296 0.104-0.604 0.16-0.933 0.083-0.488 0.19-1.112 0.324-1.874 0.121-0.694 0.184-1.041 0.303-1.735 0.082-0.831 0.182-1.548 0.3-2.143 0.119-0.598 0.174-1.022 0.168-1.275 0-0.065-1e-3 -0.099-2e-3 -0.163-3e-3 -0.181 0.019-0.335 0.066-0.461 0.047-0.127 0.068-0.28 0.065-0.462 0.02-0.722 0.021-1.429 0.011-2.115-0.012-0.687 3e-3 -1.392 0.035-2.115 0.028-1.021 0.042-1.53 0.07-2.552 0-0.072 4e-3 -0.144 0.012-0.216 4e-3 -0.043 5e-3 -0.086 7e-3 -0.129-9e-3 -0.12-9e-3 -0.243 9e-3 -0.363" fill="#FFFFFF"></path>
<path d="m48.408 219.29c-0.039-0.553-0.081-1.027-0.123-1.437-0.042-0.406-0.062-0.633-0.062-0.671 0.018-0.033 0.025-0.1 0.028-0.189-0.021-0.075-0.037-0.155-0.045-0.235-0.039-0.08-0.069-0.161-0.092-0.247-0.15-0.261-0.232-0.402-0.388-0.675-0.207-0.468-0.373-0.837-0.497-1.109-0.044-0.098-0.085-0.186-0.127-0.269-0.149-0.123-0.259-0.278-0.337-0.452-0.323-0.261-0.648-0.521-0.972-0.78-0.304-0.243-0.714-0.494-0.969-0.854-0.109-0.055-0.202-0.124-0.285-0.202-0.119-0.043-0.23-0.082-0.324-0.107-0.317-0.026-0.635-0.067-0.951-0.122-0.035 4e-3 -0.07 4e-3 -0.104 8e-3 -0.144 0.02-0.332 0.029-0.559 0.029-0.415 0-0.813 0.059-1.196 0.175-0.383 0.117-0.62 0.374-0.699 0.761-0.127 0.619-0.218 1.131-0.28 1.521-0.062 0.391-0.108 0.722-0.14 0.994s-0.046 0.527-0.046 0.761v0.76c0 0.508 0.015 0.967 0.046 1.418 0.031 0.452 0.067 0.968 0.109 1.556 0 0.136-5e-3 0.274-0.016 0.412-0.011 0.141-0.016 0.28-0.016 0.421v4.603c0 0.679 0.021 1.443 0.062 2.28 0 6e-3 1e-3 0.012 1e-3 0.02 3e-3 8e-3 8e-3 0.016 0.011 0.025 0.06 0.179 0.041 0.543 0.041 0.543s0 0.027-5e-3 0.096c0.028 0.315 0.066 0.616 0.109 0.908 0.885 1.429 2.593 2.293 4.281 2.248 1.55-0.041 2.297-1.188 2.991-2.429 0.036-0.064 0.075-0.12 0.115-0.175 0.021-0.146 0.04-0.296 0.05-0.452 0.037-0.187 0.056-0.278 0.092-0.467 0.161-0.561 0.25-1.313 0.262-2.24 4e-3 -0.327 6e-3 -0.49 0.01-0.815 3e-3 -0.214 0.026-0.482 0.07-0.8 0.046-0.733 0.068-1.098 0.113-1.804 2e-3 -0.204-0.013-0.633-0.047-1.248-0.036-0.617-0.073-1.205-0.111-1.76" fill="#FFFFFF"></path>
<path d="m48.036 200.1c0-0.116 5e-3 -0.243 0.016-0.379 0.01-0.137 0.015-0.263 0.015-0.38 0-0.235-0.017-0.455-0.048-0.663-0.123-0.394-0.253-0.785-0.367-1.182-0.11-0.386-0.205-0.778-0.26-1.186-0.071-0.138-0.128-0.3-0.171-0.482-0.123-0.187-0.251-0.374-0.379-0.557-0.082-0.092-0.167-0.179-0.254-0.265h-5e-3c-0.067-0.014-0.181-0.078-0.348-0.2-0.185-0.137-0.373-0.282-0.559-0.438-0.187-0.155-0.363-0.302-0.528-0.438-0.166-0.137-0.259-0.226-0.279-0.265-3e-3 0-5e-3 -2e-3 -8e-3 -4e-3 -0.013-4e-3 -0.023-0.01-0.033-0.016-0.148-0.072-0.28-0.142-0.393-0.214-6e-3 -4e-3 -0.015-4e-3 -0.021-8e-3 -0.287-0.025-0.576-0.035-0.865-0.041-0.289 0.02-0.577 0.043-0.866 0.076-0.231 0.025-0.462 0.039-0.692 0.047-0.135 0.058-0.268 0.147-0.399 0.278-0.238 0.233-0.456 0.554-0.652 0.963-0.197 0.41-0.353 0.878-0.466 1.405-0.114 0.525-0.171 1.063-0.171 1.607 0 0.43 0.037 0.839 0.11 1.228 0.072 0.392 0.107 0.8 0.107 1.229 0 0.364-0.018 0.726-0.043 1.09 0.067 0.216 0.075 0.465-5e-3 0.743-0.015 0.053-0.026 0.105-0.039 0.158 0.182 0.941 0.242 1.878 0.287 2.843 0.045 1.004 0.491 1.837 0.767 2.789 7e-3 0.025 0.012 0.051 0.018 0.076 0.666 0.601 1.572 0.984 2.487 1.082 0.126-0.047 0.253-0.09 0.382-0.125 0.166 0 0.316 0.02 0.45 0.059 0.071 0.021 0.146 0.035 0.225 0.045 0.294-0.045 0.582-0.121 0.849-0.237 0.063-0.027 0.126-0.049 0.189-0.068 0.138-0.121 0.266-0.276 0.384-0.469 0.32-0.527 0.637-1.141 0.948-1.844 0.041-0.233 0.082-0.369 0.124-0.408 0.01-0.01 0.018-0.025 0.026-0.035 0.294-1.411 0.46-2.865 0.494-4.33-3e-3 -0.143-2e-3 -0.288-6e-3 -0.433-0.015-0.347-0.021-0.698-0.021-1.051" fill="#FFFFFF"></path>
<path d="m46.336 207.38c9e-3 0.023 0.014 0.032 0.024 0.056h-0.024c-0.017 0-0.024-0.018-0.024-0.056h0.024z" fill="#FFFFFF"></path>
<path d="m124.51 213.31c-0.099-1.927-0.396-3.575-0.821-5.187-0.251-0.952-0.585-1.849-1.018-2.682-0.369-0.713-0.824-1.304-1.377-1.752-0.647-0.523-1.357-0.761-2.094-0.488-0.849 0.313-1.619 0.866-2.254 1.697-0.14 0.185-0.267 0.424-0.325 0.669-0.263 1.104-0.521 2.211-0.738 3.332-0.392 2.007-0.502 4.03-0.134 6.078 0.104 0.576 0.205 1.165 0.151 1.767 0 4e-3 0 0.01 1e-3 0.014 3e-3 0.029 7e-3 0.059 0.011 0.088 1e-3 0.012 3e-3 0.023 5e-3 0.039 0.048 0.313 0.106 0.622 0.169 0.93 0.039 0.195 0.079 0.39 0.117 0.584 0.229 0.504 0.452 1.012 0.687 1.513 0.274 0.581 0.592 1.111 0.946 1.592 0.128 0.075 0.257 0.149 0.392 0.214 0.414 0.202 0.896 0.376 1.427 0.531 0.196 0.059 0.393 0.109 0.593 0.153 0.016 4e-3 0.023 6e-3 0.028 8e-3 8e-3 0 0.011 0 0.02 2e-3 0.073 8e-3 0.145 0.016 0.218 0.023 0.162 0.014 0.323 0.025 0.486 0.029 0.354 6e-3 0.722-0.018 1.015-0.134 0.174-0.156 0.319-0.374 0.455-0.607 0.622-1.076 1.163-2.219 1.531-3.493 0.168-0.586 0.265-1.191 0.229-1.816-0.041-0.702 0.021-1.383 0.147-2.064 0.075-0.411 0.107-0.833 0.133-1.04" fill="#FFFFFF"></path>
<path d="m504.99 168.05c0-0.302-0.084-0.884-0.107-1.211-0.041-0.591-0.11-1.124-0.191-1.71-0.257-1.84-0.502-3.681-0.836-5.506-0.672-3.659-1.647-7.237-3.103-10.673-2.244-5.299-5.532-9.816-10.108-13.353-1.738-1.343-3.597-2.5-5.513-3.57-1.492-0.832-3.012-1.616-4.479-2.487-1.243-0.74-2.474-1.514-3.63-2.378-2.82-2.105-4.999-4.86-5.378-8.347-0.208-1.922 0.079-4.343 1.135-5.966 0.489-0.752 1.531-1.921 2.245-2.463 1.628-1.233 3.061-1.622 5.065-2.003 1.775-0.337 2.741-0.194 4.062 0.146 1.925 0.498 3.32 2.111 3.651 4.487 0.322 2.315-0.88 4.794-1.122 5.182-0.207 0.335-0.608 0.823-0.748 0.946-1.043 0.913-2.462 1.198-3.969 0.154-0.603-0.418-1.11-0.977-1.658-1.475-0.152-0.138-0.442-0.481-0.597-0.631-0.011 0.2-0.024 0.374-0.024 0.43 4e-3 1.392 0.244 2.732 0.897 3.978 0.59 1.125 1.446 1.988 2.616 2.483 2.08 0.883 4.169 1.048 6.275 0.105 1.222-0.548 2.428-1.648 3.167-2.639 1.332-1.787 2.158-4.208 2.58-6.393 0.379-1.96 0.201-3.947-0.293-5.884-0.74-2.902-2.919-5.063-5.406-6.709-1.886-1.249-3.57-2.049-5.77-2.501-0.797-0.164-2.017-0.276-2.825-0.281-1.524-0.01-3.04 0.188-4.52 0.57-4.503 1.162-7.636 3.545-10.156 7.767-0.824 1.379-1.566 2.971-1.995 4.516-1.186 4.281-1.069 7.507 0.177 12.081 1.027 3.776 4.111 7.518 7.374 9.715 0.77 0.518 1.607 0.94 2.351 1.49 1.327 0.982 1.489 1.091 2.606 2.22 2.384 2.409 3.835 5.464 4.727 8.75 0.688 2.531 0.874 5.116 0.829 7.728-0.055 3.173-0.521 6.29-1.2 9.377-1.173 5.332-3.157 10.291-6.497 14.633-1.228 1.596-2.107 2.397-3.667 3.677-0.315 0.257-1.369 0.957-1.731 1.188-2.734 1.742-4.899 2.715-7.542 3.463-2.366 0.667-4.927 0.469-7.468 0.116-0.632-0.087-1.396-0.271-2.005-0.475-3.121-1.055-5.836-2.75-8.104-5.14-1.632-1.723-2.892-3.673-3.578-5.963-0.979-3.266-0.936-6.388-0.056-9.692 0.113-0.428 0.324-1.143 0.455-1.568 0.44-1.423 1.028-2.6 1.915-3.816 1.909-2.621 5.051-3.636 8.103-2.635 3.057 1.002 4.999 3.672 4.994 6.902-1e-3 0.592-0.108 1.182-0.16 1.771-0.031 0.345 0.224 0.743 0.547 0.813 0.505 0.106 0.906 0.092 1.415 0.068 1.304-0.057 2.586-0.272 3.808-0.752 0.381-0.147 0.753-0.32 1.106-0.518 0.511-0.286 0.809-0.704 0.918-1.313 0.203-1.146 0.275-2.292 0.146-3.44-0.249-2.236-1.307-4.002-3.243-5.188-0.504-0.308-1.049-0.559-1.598-0.782-1.248-0.506-2.561-0.76-3.9-0.856-2.007-0.146-4.009-0.082-6.001 0.228-2.654 0.412-5.231 1.086-7.676 2.221-3.18 1.473-5.58 3.883-7.281 6.854-0.165 0.288-0.358 0.589-0.487 0.841-0.334 0.646-0.583 1.2-0.803 1.837-1.6 4.638-1.888 9.364-0.979 14.172 0.84 4.442 2.575 8.519 5.143 12.231 3.301 4.779 7.521 8.483 12.846 10.881 0.199 0.09 0.386 0.202 0.592 0.312-0.256 0.404-0.665 0.523-1.016 0.714-5.298 2.889-10.837 5.208-16.598 7-9.863 3.071-19.981 4.477-30.288 4.619-6.436 0.089-12.84-0.362-19.222-1.211-4.493-0.596-8.951-1.388-13.375-2.366-8.711-1.931-17.23-4.521-25.597-7.613-11.617-4.298-22.827-9.494-33.736-15.344-8.606-4.616-17.263-9.14-26.039-13.423-11.116-5.424-22.375-10.522-33.934-14.94-8.259-3.156-16.633-5.963-25.24-8.023-6.259-1.499-12.579-2.585-19.025-2.867-4.139-0.181-8.245 0.033-12.314 0.796-4.385 0.821-8.508 2.35-12.294 4.739-3.491 2.205-6.452 4.995-9.079 8.16-1.663 2.004-3.187 4.11-4.633 6.272-1.508 2.253-2.965 4.54-4.504 6.772-1.265 1.833-2.579 3.638-3.94 5.398-1.48 1.915-3.17 3.642-5.054 5.171-3.328 2.703-7.102 4.42-11.326 5.163-4.318 0.759-8.665 1.304-13.03 1.703-4.182 0.381-8.376 0.568-12.573 0.661-3.53 0.08-7.057-4e-3 -10.585-0.128-3.9-0.137-7.791-0.403-11.674-0.763-3.993-0.372-7.972-0.866-11.941-1.45-5.219-0.765-10.407-1.693-15.563-2.789-12.618-2.686-24.989-6.239-37.122-10.618-6.813-2.46-13.536-5.138-20.095-8.217-0.215-0.101-0.429-0.33-0.78-0.097-0.105 0.638-0.24 1.327-0.331 2.021-0.404 3.093-0.846 6.182-1.178 9.281-0.343 3.211-0.597 6.435-0.847 9.653-0.138 1.778-0.14 2.582-0.229 4.363-0.035 0.712-0.153 2.258-0.197 3.229 0 2.602-0.059 4.777-0.059 7.378 0 0.739-0.038 1.693 0 2.397 0.073 1.335 0.172 2.621 0.264 3.955 0.229 3.337 0.88 6.595 1.576 9.868 0.612 2.877 1.435 5.687 2.655 8.371 0.819 1.8 1.808 3.495 3.08 5.017 1.916 2.291 4.283 3.854 7.207 4.575 2.643 0.654 5.326 1.013 8.028 1.236 4.038 0.335 8.085 0.482 12.136 0.41 3.083-0.056 6.166-0.153 9.244-0.322 3.596-0.197 7.192-0.446 10.78-0.764 3.106-0.274 6.207-0.636 9.299-1.041 3.865-0.506 7.728-1.041 11.576-1.662 5.242-0.845 10.451-1.866 15.634-3.024 8.631-1.925 17.15-4.248 25.503-7.159 7.093-2.474 14.013-5.347 20.637-8.904 4.854-2.607 9.696-5.314 13.736-9.078 4.826-4.496 7.374-7.489 10.781-12.37 0.296-0.426 0.549-0.884 0.829-1.321 3.105-4.865 6.534-9.479 10.5-13.684 3.43-3.637 7.186-6.886 11.423-9.56 9.172-5.787 19.134-7.862 29.854-6.33 3.76 0.537 7.422 1.486 11.006 2.737 5.562 1.944 10.811 4.547 15.869 7.546 5.376 3.188 10.46 6.8 15.4 10.622 2.477 1.919 4.748 4.046 6.848 6.365 2.021 2.232 3.896 4.588 5.697 6.999 2.867 3.842 5.545 7.815 8.219 11.791 3.773 5.611 7.532 11.229 11.56 16.661 4.742 6.399 9.834 12.49 15.515 18.084 13.064 12.86 28.43 21.721 46.107 26.572 9.349 2.565 18.88 3.984 28.551 4.508 0.439 0.023 0.897-0.059 1.304 0.192h17.166c0.406-0.251 0.864-0.169 1.303-0.192 10.692-0.602 21.161-2.411 31.332-5.815 11.574-3.871 22.103-9.622 31.448-17.496 8.494-7.157 15.459-15.598 21.065-25.171 5.519-9.426 9.457-19.485 12.034-30.088 1.07-4.406 1.861-8.862 2.405-13.362 0.152-1.251 0.28-2.458 0.391-3.715 0.039-0.435-0.01-0.925 0.059-1.358 0.107-4.995 0.301-9.724 0.056-14.749m-472.42 24.268c-0.036 0.228-0.056 0.441-0.061 0.646 0.031 0.245 0.05 0.498 0.056 0.761 6e-3 0.265 1e-3 0.518-0.014 0.759-0.013 0.204-0.035 0.386-0.065 0.549-0.03 0.161-0.051 0.325-0.064 0.484-6e-3 0.084-7e-3 0.145-1e-3 0.184 5e-3 0.038 5e-3 0.099-3e-3 0.181-0.147 1.433-0.248 2.146-0.405 3.624-0.023 0.251-0.082 0.558-0.174 0.92-0.091 0.364-0.193 0.723-0.305 1.072-0.111 0.353-0.22 0.654-0.33 0.901s-0.22 0.376-0.331 0.384c-0.26 0.017-0.489-0.189-0.679-0.609-0.19-0.419-0.319-0.86-0.381-1.321-0.237-1.511-0.322-2.242-0.523-3.72-0.067-0.492-0.204-0.99-0.414-1.502s-0.44-0.987-0.689-1.423c-0.25-0.438-0.486-0.796-0.705-1.072-0.217-0.274-0.35-0.415-0.39-0.415-0.158-0.085-0.316-0.171-0.474-0.259-0.158-0.085-0.316-0.173-0.476-0.261-0.286-0.157-0.43-0.237-0.718-0.398-0.321-2e-3 -0.637 0.093-0.953 0.29-0.316 0.198-0.615 0.455-0.901 0.769-0.287 0.315-0.553 0.633-0.798 0.951-0.245 0.319-0.441 0.619-0.587 0.894-0.021 0-0.037 0.014-0.049 0.035-0.013 0.025-0.029 0.035-0.048 0.035-9e-3 2e-3 -0.016-4e-3 -0.023-0.01-0.059 0.138-0.145 0.259-0.244 0.372-0.045 0.112-0.095 0.226-0.148 0.334-5e-3 0.01-0.013 0.018-0.018 0.027-9e-3 0.072-0.023 0.109-0.041 0.109-0.416 1.078-0.636 1.623-1.065 2.713-0.063 0.187-0.112 0.393-0.148 0.623-0.037 0.229-0.088 0.459-0.153 0.688-0.064 0.249-0.095 0.374-0.156 0.623-4e-3 0.039-0.033 0.061-0.079 0.07-0.013 0.171-0.057 0.336-0.126 0.488 0 0.229-0.053 0.455-0.154 0.655 0.048 0.321-5e-3 0.66-0.161 0.938 3e-3 0.055 4e-3 0.114 0 0.187-0.165 1.18-0.212 2.334-0.207 3.497 5e-3 1.166-8e-3 2.407-0.034 3.716-0.012 0.588-4e-3 1.231 0.013 1.931 0.017 0.698 0.025 1.249 0.025 1.656 7e-3 0.181 0.034 0.346 0.078 0.5 0.043 0.151 0.068 0.319 0.076 0.498 0.022 0.592 0.033 0.888 0.047 1.477 4e-3 0.182-0.01 0.278-0.039 0.302 0.019 0.135 0.019 0.269 2e-3 0.403 0.026 0.039 0.054 0.124 0.082 0.265 0.039 0.196 0.072 0.449 0.1 0.759 0.027 0.31 0.048 0.619 0.061 0.927 0.013 0.31 0.015 0.574 8e-3 0.794 0.025 1.39 0.054 2.061 0.145 3.394 2e-3 0.127 0.021 0.325 0.056 0.594 0.035 0.271 0.075 0.539 0.123 0.806 0.047 0.269 0.095 0.516 0.144 0.739 0.048 0.227 0.083 0.358 0.103 0.399 0.197 0.584 0.298 0.876 0.508 1.462 0.211 0.61 0.477 1.031 0.786 1.263 0.063 0.096 0.095 0.144 0.159 0.241 0.29 0.411 0.571 0.767 0.844 1.078 0.151 0.025 0.283 0.078 0.4 0.146 0.166 0.021 0.33 0.067 0.486 0.144 0.592 0.294 1.256 0.351 1.915 0.36 0.168-0.084 0.365-0.135 0.595-0.135 0.035 0 0.065 8e-3 0.1 0.01 0.05-0.07 0.108-0.108 0.174-0.112 0.074-6e-3 0.111-8e-3 0.185-0.012 0.158-0.012 0.316-0.098 0.476-0.263 0.159-0.164 0.3-0.384 0.424-0.656s0.228-0.555 0.31-0.849c0.083-0.292 0.124-0.57 0.124-0.835-2e-3 -0.027-3e-3 -0.039-5e-3 -0.066 0.086-0.048 0.166-0.231 0.246-0.547 0.078-0.313 0.154-0.649 0.228-1.01 0.073-0.357 0.137-0.683 0.19-0.975 0.054-0.292 0.081-0.48 0.079-0.57 0.111-0.582 0.216-1.166 0.313-1.75 0.097-0.582 0.151-1.117 0.159-1.607 2e-3 -0.132 0-0.276-5e-3 -0.43-6e-3 -0.154-6e-3 -0.3-3e-3 -0.433 3e-3 -0.177 0.024-0.479 0.065-0.902 0.041-0.427 0.103-0.851 0.185-1.279 0.08-0.424 0.177-0.798 0.29-1.117 0.112-0.316 0.24-0.482 0.382-0.492 0.248-0.02 0.466 0.201 0.655 0.654 0.19 0.453 0.272 0.971 0.251 1.547-0.018 0.488-0.062 0.935-0.134 1.337-0.072 0.403-0.112 0.849-0.119 1.337-1e-3 0.107-2e-3 0.16-3e-3 0.267-2e-3 0.223-0.017 0.423-0.044 0.602-0.028 0.18-0.059 0.382-0.094 0.605-0.032 0.4-0.046 0.602-0.073 1.002-0.016 0.135-0.036 0.247-0.061 0.337-0.025 0.092-0.046 0.181-0.062 0.271-0.214 0.946-0.314 1.417-0.498 2.36-0.022 0.189-0.033 0.282-0.054 0.472-0.149 0.451-0.311 0.994-0.478 1.627-0.167 0.632-0.334 1.229-0.506 1.794-0.155 0.51-0.315 0.942-0.484 1.308-0.317 1.252-0.944 2.069-1.678 2.381-0.515 0.22-1.1 0.303-1.689 0.14-0.274-0.076-0.525-0.308-0.773-0.633-0.13-0.018-0.271-0.058-0.422-0.126-0.221-0.1-0.43-0.21-0.628-0.333-0.197-0.122-0.375-0.233-0.534-0.335-0.158-0.101-0.258-0.173-0.301-0.214-0.103-0.082-0.196-0.144-0.282-0.183-0.085-0.037-0.171-0.098-0.255-0.182-0.341-0.398-0.51-0.595-0.845-0.988-0.19-0.204-0.38-0.438-0.568-0.702-0.188-0.265-0.374-0.501-0.561-0.695-0.341-0.358-0.697-0.86-1.035-1.5-0.337-0.641-0.624-1.27-0.86-1.89-0.237-0.621-0.491-1.392-0.743-2.324-2e-3 -0.051-3e-3 -0.074-5e-3 -0.124-6e-3 -0.164-0.026-0.329-0.057-0.493-0.032-0.163-0.068-0.328-0.107-0.492-0.26-1.372-0.365-2.063-0.55-3.526-0.065-0.112-0.107-0.274-0.101-0.457 0.01-0.31 0.013-0.621 0.013-0.933 0-0.01 0-0.02-1e-3 -0.031-0.079-0.095-0.141-0.328-0.192-0.702-0.071-0.51-0.116-0.878-0.123-1.104-3e-3 -0.084-4e-3 -0.163-4e-3 -0.245-0.089-0.439-0.167-0.884-0.206-1.37-0.041-0.523-0.045-1.041-0.024-1.553-8e-3 -0.109-0.012-0.164-0.02-0.272-0.044-0.36-0.083-0.719-0.119-1.08-0.036-0.36-0.067-0.721-0.093-1.082-0.034-0.452-0.058-0.915-0.071-1.388-0.013-0.476-0.013-0.915 1e-3 -1.323 0.027-2.328 0.061-3.441 0.398-5.798 0.08-0.45 0.176-0.841 0.283-1.188-0.02-0.224 0.016-0.463 0.129-0.708 0.636-1.384 0.681-3.046 1.196-4.492 0.499-1.403 1.756-2.349 2.223-3.719 0.032-0.096 0.072-0.181 0.118-0.259 0.043-0.202 0.103-0.343 0.182-0.417 4e-3 -6e-3 7e-3 -0.014 0.012-0.02 0.163-0.231 0.313-0.418 0.524-0.595 0.039-0.031 0.077-0.064 0.115-0.098 0.085-0.231 0.268-0.436 0.464-0.594 0.056-0.087 0.117-0.173 0.193-0.247l-6e-3 -0.018c0.164-0.179 0.375-0.402 0.632-0.665 0.256-0.265 0.501-0.493 0.738-0.686 0.237-0.194 0.434-0.364 0.594-0.514 0.16-0.149 0.208-0.226 0.208-0.226s0.034 4e-3 0.077 0.012c0.224-0.174 0.518-0.282 0.881-0.282 0.055 0 0.108 4e-3 0.16 8e-3 0.058-6e-3 0.118-8e-3 0.178-8e-3 0.175 0 0.332 0.027 0.474 0.072 0.265 0.016 0.488 0.091 0.674 0.206 0.145 0.035 0.275 0.086 0.39 0.155 0.172 0.045 0.324 0.115 0.451 0.212 0.066 0.025 0.13 0.055 0.188 0.09 0.066 0.031 0.128 0.064 0.187 0.104 0.119 0.059 0.235 0.126 0.346 0.216 0.313 0.249 0.596 0.52 0.847 0.808s0.478 0.553 0.683 0.79c0.144 0.167 0.288 0.271 0.435 0.321 0.145-0.063 0.276-0.156 0.39-0.286 0.223-0.255 0.353-0.59 0.447-0.913 9e-3 -0.033 0.027-0.056 0.048-0.071 0.127-0.263 0.229-0.537 0.372-0.794 1e-3 0 3e-3 -2e-3 4e-3 -2e-3 0.054-0.1 0.116-0.156 0.189-0.156 0.441-4e-3 0.862 0.38 1.201 1.131s0.535 1.627 0.56 2.621c7e-3 0.209-8e-3 0.425-0.043 0.652m20.863 30.901c-0.014 0.164-0.054 0.31-0.112 0.44-2e-3 0.018 0 0.033-2e-3 0.051-0.389 2.46-0.336 5.188-1.325 7.506-0.422 0.988-1.005 2.048-1.79 2.863-0.45 0.571-0.977 1.047-1.568 1.335-0.06 0.043-0.119 0.083-0.191 0.12-1.676 0.833-3.573 0.535-5.354 0.265-2.371-0.363-4.691-0.488-7.093-0.49-0.258 0-0.471-0.064-0.651-0.167-0.072 0.027-0.146 0.045-0.219 0.045-0.083 0-0.182-0.059-0.295-0.18-0.114-0.118-0.217-0.271-0.311-0.455-0.093-0.187-0.17-0.388-0.233-0.605-0.062-0.216-0.093-0.393-0.093-0.527 0-0.356 0.114-0.702 0.341-1.033 0.228-0.327 0.424-0.498 0.59-0.498h0.093c0.063 0 0.135-0.047 0.218-0.145 0.199-0.173 0.298-0.261 0.497-0.436 0.456-0.59 0.75-1.353 0.885-2.307 0.134-0.953 0.202-1.652 0.202-2.072 0-0.051-5e-3 -0.092-0.016-0.117-0.01-0.027-0.016-0.065-0.016-0.118v-0.08c0.166-1.207 0.249-2.552 0.249-3.956 0-1.556-0.036-3.036-0.108-4.323-0.073-1.286-0.109-2.438-0.109-3.607 0-0.431 0.047-0.849 0.14-1.26 0.094-0.408 0.141-0.827 0.141-1.257v-2.515c0-0.896 0.01-1.813 0.031-2.75-0.015-0.037-0.015-0.08 0-0.116v-1.783c0-0.566-0.011-1.143-0.029-1.724-0.045-0.068-0.031-0.172 0.041-0.215-4e-3 -8e-3 -7e-3 -0.014-0.012-0.021-0.013 0.023-0.019 0.035-0.031 0.059 0-1.053-0.022-2.057-0.063-3.013-0.041-0.953-0.099-1.821-0.17-2.602-0.073-0.78-0.333-2.062-0.458-2.606-0.124-0.547-0.441-1.555-0.627-1.788-0.078-0.098-0.167-0.173-0.26-0.239-0.737-0.396-1.813-0.604-1.92-1.596-0.016-0.078-0.026-0.166-0.026-0.271 0.021-0.312 0.16-0.564 0.419-0.76 0.258-0.194 0.548-0.352 0.869-0.469 0.322-0.116 0.612-0.194 0.871-0.233 0.258-0.039 0.398-0.059 0.419-0.059 5e-3 2e-3 9e-3 6e-3 0.014 8e-3 4e-3 2e-3 9e-3 4e-3 0.014 6e-3 0.01 0 0.018 4e-3 0.027 8e-3h4e-3c0.01 4e-3 0.02 6e-3 0.029 0.012 0.033 0.023 0.068 0.047 0.101 0.07 0.337 0.177 0.682 0.339 1.034 0.482 0.208 0.02 0.439-6e-3 0.615 0.016 0.399 0.045 0.789 0.155 1.189 0.202 1.585 0.184 3.195 0.125 4.789 0.121 0.404-2e-3 0.807-2e-3 1.211 2e-3 0.391 4e-3 0.789-6e-3 1.177 0.035 0.058 6e-3 0.116 0.016 0.173 0.025 0.013-4e-3 0.025-0.01 0.041-0.01 0.496-0.014 1.068 0.112 1.525 0.302 0.392 0.161 0.639 0.467 0.872 0.808 0.308 0.453 0.701 0.842 1.096 1.22 0.382 0.366 0.798 0.72 1.122 1.143 0.16 0.206 0.277 0.441 0.364 0.688 0.024 0.074 0.044 0.148 0.063 0.225 0.15 0.328 0.288 0.685 0.412 1.08 0.134 0.428 0.238 0.81 0.312 1.138 0.071 0.333 0.108 0.479 0.108 0.44 0.062 0.43 0.093 0.868 0.093 1.315v1.315c0 0.741-0.073 1.532-0.217 2.37-0.136 0.785-0.356 1.505-0.655 2.17-0.108 0.563-0.301 1.09-0.553 1.581-0.624 1.22-1.466 2.207-1.985 3.522-0.106 0.269-0.196 0.547-0.273 0.831 0.047 0.062 0.092 0.13 0.132 0.206 0.52 0.998 1.47 1.73 2.137 2.637 0.66 0.896 1.175 1.83 1.516 2.893 0.695 2.172 0.784 4.599 0.589 6.848m18.922-3.316c-0.046 0.357-0.064 0.729-0.072 1.105-0.011 0.601-0.018 1.2-0.073 1.79-0.096 1.006-0.356 1.979-0.662 2.88-0.175 1.121-0.446 2.219-0.765 3.309-0.302 1.034-0.617 2.085-1.253 2.97-0.396 0.551-0.873 0.989-1.418 1.339-0.906 0.748-2.021 1.348-3.14 1.556-0.039 6e-3 -0.074 4e-3 -0.108-4e-3 -1.159 0.467-2.021 0.363-3.114 0.206-0.394-0.057-0.78-0.129-1.153-0.204-0.101-6e-3 -0.204-6e-3 -0.307 6e-3 -0.16 0.02-0.313 0.069-0.458 0.153s-0.289 0.127-0.432 0.131c-0.175 4e-3 -0.343-0.018-0.514-0.055-0.171-0.035-0.35-0.053-0.537-0.053-0.233 0-0.529 0.07-0.886 0.216-0.198 0.08-0.375 0.137-0.535 0.172-0.104 0.05-0.216 0.101-0.33 0.126-0.124 0.027-0.257 0.049-0.384 0.041-0.289-0.018-0.566-0.104-0.805-0.269-0.156-0.111-0.263-0.237-0.327-0.412-0.073-0.1-0.125-0.258-0.118-0.386 0.049-0.798 0.29-1.505 0.652-2.017 0.034-0.087 0.073-0.159 0.119-0.212 0.171-0.198 0.342-0.335 0.514-0.406 0 0 1e-3 2e-3 3e-3 2e-3 4e-3 -2e-3 7e-3 -2e-3 0.011-6e-3 0.084-0.105 0.19-0.195 0.313-0.267 0.033-0.139 0.108-0.249 0.233-0.327 0.171-0.109 0.295-0.198 0.374-0.271 0.037-0.066 0.056-0.1 0.093-0.164 0.063-0.144 0.116-0.396 0.163-0.759 0.047-0.361 0.082-0.761 0.104-1.194 0.023-0.433 0.039-0.876 0.047-1.33 8e-3 -0.451 0.012-0.82 0.012-1.11 0-0.072-4e-3 -0.127-0.012-0.164-8e-3 -0.035-0.012-0.089-0.012-0.163 0-0.107 4e-3 -0.216 0.012-0.325 8e-3 -0.107 0.013-0.235 0.012-0.38-8e-3 -0.969-0.031-1.961-0.047-2.956-0.016-0.996-0.023-1.981-0.023-2.958-0.024-0.81-0.02-1.602 0.012-2.378v-1.631c0-0.18 0.037-0.349 0.101-0.5 0.018-0.553 0.027-1.119 0.027-1.703v-0.745c0-0.15 0.023-0.23 0.069-0.234-0.011-0.087-0.015-0.175-0.011-0.263 0-0.012-3e-3 -0.022-3e-3 -0.034-0.056-0.182-0.075-0.374-0.061-0.564-0.058-0.219-0.088-0.598-0.088-1.145 0-0.576 0.012-1.162 0.036-1.756 0.023-0.594 0.035-1.171 0.035-1.729 0-0.557-0.02-1.105-0.059-1.73-0.039-0.627-0.089-1.265-0.151-1.886s-0.136-1.191-0.222-1.695c-0.086-0.5-0.175-0.876-0.268-1.111-0.383-0.815-0.574-1.251-0.957-2.117-0.052-0.133-0.102-0.288-0.15-0.463-0.225-0.288-0.414-0.725-0.529-1.18-0.127-0.5-0.232-1.068-0.277-1.566-0.06-0.664 0.145-1.076 0.501-1.162 0.032-8e-3 0.064-0.012 0.096-0.018 0.024-8e-3 0.048-0.014 0.073-0.014 0.869-0.124 1.74 0.358 2.584 0.868 0.026-0.01 0.052-0.014 0.08-0.01 0.14 0.021 0.307 0.07 0.501 0.144 0.194 0.072 0.396 0.133 0.606 0.197 0.209 0.064 0.416 0.142 0.618 0.226 0.034 0.014 0.066 0.025 0.098 0.039 0.787-0.061 1.579 0.108 2.374 0.255 0.023 4e-3 0.048 0.01 0.072 0.016 0.11-0.031 0.226-0.039 0.348-0.023 0.156 0.018 0.31 0.066 0.462 0.14 0.498 0.051 0.995 0.066 1.49 0.125 0.011 2e-3 0.023 4e-3 0.035 6e-3 0.01-0.012 0.02-0.02 0.031-0.031 0.085-0.092 0.16-0.138 0.222-0.138s0.144 0.065 0.245 0.198c0.021 0.025 0.042 0.057 0.063 0.083 0.537 0.154 1.044 0.431 1.538 0.899 0.602 0.57 1.179 1.276 1.727 2.073 0.303 0.438 0.592 0.916 0.849 1.438 0.035 0.012 0.069 0.029 0.104 0.037 0.031 4e-3 0.085 0.139 0.163 0.397 0.066 0.22 0.135 0.457 0.207 0.704 0.018 0.051 0.037 0.102 0.053 0.156 0.018 0.052 0.028 0.103 0.035 0.153 0.075 0.267 0.164 0.586 0.265 0.955 0.109 0.617 0.222 1.058 0.338 1.334 0.117 0.278 0.229 0.688 0.338 1.212 0.206 1.076 0.313 1.6 0.511 2.595 0.049 0.104 0.077 0.222 0.078 0.338 0.05 0.172 0.095 0.31 0.134 0.417 0.047 0.126 0.089 0.271 0.128 0.434 0.039 0.162 0.07 0.37 0.093 0.623s0.035 0.598 0.035 1.031v0.216c0 0.364 0.023 0.699 0.07 1.005 0.033 0.222 0.054 0.467 0.063 0.733 0.025 0.074 0.043 0.153 0.044 0.245 4e-3 0.966 0.123 1.929 0.115 2.894 0.15 0.693 0.213 1.415 0.206 2.114-4e-3 0.614-0.061 1.303-0.274 1.916m26.24 3.699c-0.074 1.794-0.476 3.501-1.357 5.093-0.413 0.746-0.808 1.505-1.246 2.238-0.208 0.349-0.468 0.678-0.758 0.966-0.203 0.202-0.478 0.369-0.753 0.463-0.575 0.196-1.175 0.325-1.759 0.5-0.435 0.129-0.826 0.039-1.214-0.151-0.612-0.298-1.239-0.568-1.838-0.89-0.261-0.141-0.494-0.351-0.693-0.568-1.111-1.223-2.179-2.468-2.826-4.001-0.302-0.715-0.715-1.386-1.041-2.093-0.803-1.733-1.334-3.538-1.198-5.459 0.059-0.839 0.24-1.675 0.442-2.496 0.094-0.38 0.316-0.756 0.569-1.067 0.444-0.545 1.102-0.551 1.576-0.019 0.243 0.271 0.452 0.606 0.556 0.949 0.148 0.49 0.224 1.006 0.262 1.518 0.045 0.623 0.013 1.254 0.027 1.879 0.033 1.345 0.333 2.633 0.948 3.841 0.494 0.972 1.149 1.832 2.089 2.45 0.711 0.47 1.468 0.764 2.373 0.557 0.398-0.087 0.731-0.233 0.958-0.545 0.913-1.247 1.667-2.557 1.542-4.164-0.014-0.186-2e-3 -0.368-2e-3 -0.549 0.207-1.25-0.106-2.421-0.567-3.565-0.396-0.983-1.03-1.803-1.901-2.446-0.716-0.531-1.508-0.899-2.423-0.88-1.19 0.027-2.037-0.529-2.735-1.374-1.21-1.466-1.771-3.164-1.891-5.008-0.048-0.735-0.052-1.473-0.042-2.21 0.023-1.707 0.538-3.271 1.612-4.632 0.367-0.466 0.818-0.876 1.276-1.262 0.879-0.733 1.915-0.87 3.017-0.596 1.074 0.265 1.943 0.829 2.62 1.682 0.875 1.104 1.413 2.355 1.79 3.681 0.071 0.247 0.149 0.498 0.181 0.753 0.076 0.607 0.271 1.096 0.867 1.458 0.488 0.298 0.361 1.039-0.174 1.274-0.265 0.116-0.615 0.202-0.881 0.136-0.589-0.149-1.125-0.02-1.69 0.078-0.521 0.09-1.062 0.098-1.593 0.096-0.216 0-0.447-0.1-0.641-0.204-0.331-0.18-0.389-0.557-0.164-0.858 0.044-0.061 0.09-0.121 0.149-0.168 0.34-0.269 0.589-0.57 0.548-1.029-0.062-0.671-0.183-1.317-0.639-1.858-0.181-0.214-0.437-0.278-0.719-0.271-0.788 0.023-1.412 0.347-1.812 0.992-0.643 1.039-0.695 2.178-0.402 3.316 0.179 0.689 0.717 1.115 1.466 1.244 0.075 0.013 0.151 0.026 0.227 0.028 1.815 0.045 3.037 1.056 4.091 2.336 0.143 0.173 0.249 0.377 0.409 0.533 1.313 1.269 1.965 2.878 2.519 4.534 0.625 1.874 0.925 3.795 0.845 5.768m14.101 4.533c-0.103 0.238-0.236 0.444-0.398 0.619-0.012 0.012-0.025 0.023-0.038 0.035-0.874 1.339-2.849 1.693-4.417 1.557-0.089 0.041-0.193 0.064-0.311 0.064-0.368 0-0.591-0.22-0.674-0.49-6e-3 8e-3 -0.011 0.016-0.017 0.023-0.024 0.023-0.052 0.045-0.087 0.059 0-0.055-3e-3 -0.109-9e-3 -0.164-6e-3 -0.053-9e-3 -0.106-9e-3 -0.165 0-0.102 0-0.152-1e-3 -0.255-2e-3 -0.738 0.058-1.321 0.186-1.713 0.128-0.394 0.28-0.72 0.458-0.975 0.179-0.257 0.353-0.485 0.521-0.688s0.291-0.506 0.365-0.921c0.048-0.222 0.088-0.443 0.119-0.663s0.083-0.413 0.157-0.576c0-0.183-1e-3 -0.272-1e-3 -0.455 0-0.213 0.013-0.376 0.038-0.492-0.025-0.248-0.032-0.495-0.021-0.742-5e-3 -0.167-0.025-0.343-0.062-0.521-0.044-0.208-0.064-0.422-0.064-0.643v-0.414c0-0.165-9e-3 -0.323-0.027-0.475-0.019-0.152-0.028-0.337-0.028-0.559 0-0.22 3e-3 -0.454 9e-3 -0.703 1e-3 -0.046 4e-3 -0.087 7e-3 -0.13-0.063-0.233-0.106-0.475-0.108-0.718 0-0.055 7e-3 -0.109 0.02-0.162 0-8e-3 -1e-3 -0.014-1e-3 -0.023 0-0.027 5e-3 -0.061 0.018-0.103 0.012-0.041 0.019-0.09 0.019-0.145 0-0.551-0.095-0.963-0.286-1.239-0.016-0.023-0.032-0.041-0.048-0.063-0.407-0.076-0.804-0.17-1.201-0.245-0.073 0.012-0.144 0.018-0.213 0.018-0.246 0-0.482-0.041-0.71-0.125-0.016-4e-3 -0.03-6e-3 -0.046-0.012-0.041-2e-3 -0.08-6e-3 -0.12-6e-3 -0.2-4e-3 -0.446-0.023-0.681-0.031-0.015 4e-3 -0.03 8e-3 -0.045 8e-3 -0.016 0-0.034-8e-3 -0.05-0.01-0.204-2e-3 -0.394 8e-3 -0.529 0.053-0.255 0.088-0.495 0.181-0.74 0.259-0.097 0.154-0.18 0.327-0.247 0.525-0.073 0.22-0.11 0.47-0.11 0.744 0 0.056 6e-3 0.103 0.019 0.146 0.012 0.041 0.019 0.076 0.019 0.104-0.025 0.081-0.046 0.198-0.065 0.35-0.018 0.152-0.033 0.304-0.045 0.456-0.013 0.151-0.019 0.35-0.019 0.599 0 0.082 3e-3 0.172 9e-3 0.269 6e-3 0.098 9e-3 0.201 9e-3 0.31 0 0.166-0.016 0.337-0.046 0.516-0.031 0.182-0.046 0.353-0.045 0.521 1e-3 0.198 0.018 0.395 0.049 0.585 0.032 0.191 0.049 0.378 0.052 0.561 2e-3 0.243 2e-3 0.535 0 0.884-2e-3 0.339-0.014 0.543-0.037 0.615 0.025 0.104 0.028 0.214 0.013 0.321 0.01 0.054 0.012 0.11 0.011 0.167 7e-3 2e-3 0.011 4e-3 0.019 6e-3 2e-3 0.155 3e-3 0.235 6e-3 0.394 1e-3 0.065-1e-3 0.14-6e-3 0.222-5e-3 0.083-7e-3 0.157-6e-3 0.224 0.01 0.664 0.079 1.284 0.208 1.845 0.129 0.563 0.321 0.882 0.571 0.978 0.086-2e-3 0.175 0.081 0.263 0.239 0.259 0.518 0.387 0.761 0.637 1.212 0.049 0.113 0.077 0.327 0.081 0.633 3e-3 0.308 6e-3 0.563 8e-3 0.769-0.021 0.061-0.032 0.09-0.053 0.148-0.024 0.036-0.042 0.071-0.053 0.103-0.015-0.043-0.032-0.074-0.051-0.103-0.109 0.21-0.315 0.363-0.622 0.363-0.083 0-0.156-0.016-0.225-0.035-0.234 0.01-0.468 0.014-0.702 0.02-0.143 2e-3 -0.284 6e-3 -0.426 0.016-0.062 4e-3 -0.123 0.012-0.185 0.016-0.029 6e-3 -0.057 0.01-0.085 0.018-0.533 0.125-1.018 0.351-1.565 0.372-4e-3 0-9e-3 2e-3 -0.014 2e-3h-2e-3 -7e-3c-0.059 0.059-0.118 0.091-0.18 0.097-0.143 0.014-0.279-0.032-0.406-0.14-0.127-0.109-0.238-0.245-0.333-0.409-0.094-0.161-0.203-0.381-0.325-0.665-0.049-0.127-0.073-0.237-0.072-0.335 1e-3 -0.128 0.05-0.331 0.152-0.615 0.102-0.282 0.22-0.588 0.354-0.914 0.135-0.329 0.263-0.643 0.385-0.942 0.122-0.298 0.196-0.535 0.222-0.708 0.102-0.813 0.152-1.225 0.252-2.024 0-0.286 0-0.428 1e-3 -0.708 0.025-0.269 0.041-0.543 0.048-0.823 7e-3 -0.276 0.017-0.543 0.029-0.796 0-0.063-3e-3 -0.143-9e-3 -0.235-6e-3 -0.094-9e-3 -0.188-9e-3 -0.28s0.013-0.168 0.038-0.23c0.024-0.06 0.037-0.12 0.037-0.181 0-0.395 0-0.586 1e-3 -0.953 0-0.111 3e-3 -0.221 0.01-0.329 5e-3 -0.111 9e-3 -0.235 9e-3 -0.374v-1.158c0-0.054 3e-3 -0.087 9e-3 -0.101s9e-3 -0.049 9e-3 -0.105c9e-3 0.016 0.016 0.027 0.023 0.039-2e-3 -0.057 0-0.113 9e-3 -0.169-0.043-0.094-0.071-0.263-0.087-0.51-0.024-0.399-0.037-0.723-0.037-0.972 0-0.22 3e-3 -0.418 9e-3 -0.6 6e-3 -0.179 9e-3 -0.377 9e-3 -0.599 0-0.164-6e-3 -0.315-0.019-0.454-0.012-0.138-0.018-0.29-0.018-0.455 0-0.082 0.012-0.158 0.037-0.228 0.025-0.068 0.037-0.158 0.037-0.269v-0.744c0-0.081 7e-3 -0.134 0.021-0.155-0.012-0.094-8e-3 -0.19 0.011-0.282-0.032-0.066-0.051-0.177-0.051-0.349v-0.825c0-0.22 7e-3 -0.412 0.019-0.578 0.011-0.165 0.03-0.249 0.055-0.249 5e-3 -0.012 0.01-0.02 0.015-0.029-0.012-0.065-0.013-0.136-8e-3 -0.204-7e-3 -0.073-0.015-0.147-0.021-0.22h-5e-3c-0.025 0-0.037-0.027-0.037-0.084v-0.081-0.353c0-0.096-6e-3 -0.212-0.019-0.351 0-0.02 3e-3 -0.031 3e-3 -0.049-5e-3 -0.03-0.011-0.062-0.016-0.095-0.017-0.098-0.018-0.191-7e-3 -0.28-2e-3 -2e-3 -3e-3 -8e-3 -5e-3 -0.01-0.031-0.043-0.046-0.09-0.046-0.146 2e-3 -0.551 0.01-1.08 0.022-1.59 0.011-0.508 0.027-1.037 0.047-1.588-0.062-0.192-0.092-0.345-0.091-0.455 1e-3 -0.098 1e-3 -0.148 2e-3 -0.247 2e-3 -0.109-0.018-0.302-0.062-0.578-0.042-0.274-0.083-0.523-0.12-0.744 0-0.019 8e-3 -0.03 0.014-0.042-0.056-0.068-0.096-0.143-0.117-0.23-0.056-0.149-0.108-0.303-0.163-0.453-0.037-0.063-0.077-0.118-0.12-0.165-0.091-0.098-0.181-0.201-0.27-0.312-0.089-0.109-0.168-0.255-0.238-0.435-0.069-0.179-0.11-0.42-0.122-0.724 0-0.22 0.059-0.393 0.179-0.516 0.12-0.125 0.231-0.185 0.335-0.185 0.021 2e-3 0.039 4e-3 0.059 6e-3 0.077-0.027 0.158-0.045 0.239-0.047 0.789-2e-3 1.567-0.162 2.35-0.082 0.073-0.014 0.146-0.02 0.215-0.02 0.16 2e-3 0.341 0.023 0.541 0.066s0.382 0.111 0.548 0.208c0.166 0.096 0.298 0.233 0.402 0.411 0.104 0.179 0.152 0.406 0.146 0.681-5e-3 0.247-0.054 0.454-0.149 0.619-0.093 0.165-0.196 0.296-0.308 0.391-0.112 0.098-0.218 0.174-0.314 0.229-0.096 0.054-0.151 0.095-0.165 0.122-0.188 0.302-0.348 0.686-0.476 1.152-0.128 0.467-0.23 0.925-0.306 1.378-0.075 0.451-0.129 0.878-0.162 1.276-0.033 0.397-0.051 0.693-0.057 0.886 0.02 0.347 0.03 0.52 0.052 0.866 0.012 0.551 0.037 1.037 0.072 1.463 0.035 0.429 0.085 0.808 0.147 1.139 0.061 0.329 0.149 0.627 0.267 0.888 0.095 0.216 0.226 0.412 0.375 0.602 0.204 0.064 0.412 0.112 0.622 0.149 0.085-0.071 0.173-0.11 0.264-0.11 0.025 0 0.05 0.01 0.075 0.023 0.089-0.037 0.185-0.061 0.281-0.064 0.512-0.018 1.021 0.103 1.521 0.206h1e-3c0.044 0 0.089 0.01 0.136 0.029 0.069 0.014 0.138 0.025 0.207 0.039 0.032 6e-3 0.063 0.012 0.094 0.016 0.01 2e-3 0.033 4e-3 0.051 8e-3 0.026 2e-3 0.053 6e-3 0.079 8e-3 0.061 6e-3 0.122 0.01 0.184 0.012 0.054 0 0.108 0 0.162-2e-3 0.181-0.104 0.325-0.292 0.431-0.563 0.171-0.442 0.291-0.937 0.358-1.489 0.068-0.551 0.099-1.094 0.093-1.631s-3e-3 -0.916 0.01-1.137c0-0.165 0.012-0.33 0.037-0.494 0.024-0.165 0.037-0.331 0.037-0.496s-6e-3 -0.339-0.019-0.518-0.025-0.353-0.037-0.518v-0.29c0-0.966-0.119-1.729-0.346-2.293-0.228-0.564-0.502-0.941-0.819-1.133-0.136-0.081-0.201-0.314-0.2-0.7 2e-3 -0.413 0.083-0.689 0.247-0.829 0.163-0.138 0.31-0.222 0.437-0.251 0.292-0.035 0.45-0.035 0.754-0.092 0.132-0.037 0.263-0.091 0.391-0.161 0.028-0.016 0.05-0.029 0.078-0.045 0.038-0.033 0.076-0.07 0.115-0.105 0.039-0.032 0.079-0.065 0.119-0.099 0.063-0.049 0.122-0.105 0.19-0.146 0.033-0.02 0.029-0.016 0.014-4e-3 0.225-0.175 0.459-0.33 0.72-0.449 0.278-0.127 0.564-0.231 0.852-0.337 0.234-0.085 0.473-8e-3 0.652 0.145 0.014 4e-3 0.035 0.021 0.069 0.06 0.041 0.047 0.085 0.094 0.133 0.143s0.107 0.138 0.181 0.274c-9e-3 0.319-0.014 0.482-0.02 0.813-0.02 0.218-0.085 0.428-0.197 0.641-0.112 0.21-0.229 0.422-0.351 0.628-0.122 0.209-0.238 0.386-0.348 0.533-0.112 0.146-0.178 0.253-0.199 0.323-0.203 0.598-0.352 1.325-0.45 2.174-8e-3 0.276-0.012 0.415-0.021 0.689 3e-3 0.151-3e-3 0.352-0.022 0.595 0 0.018 0 0.027 1e-3 0.045-0.019 4e-3 -0.029 0.012-0.041 0.018 5e-3 0.078 0.011 0.154 0.018 0.229 7e-3 0.02 0.011 0.043 0.012 0.07 0 0.021 1e-3 0.037 1e-3 0.057 9e-3 0.09 0.016 0.179 0.027 0.269 8e-3 0.061-2e-3 0.122-0.019 0.183 1e-3 0.037 1e-3 0.074 2e-3 0.121 0.016 0.235 0.028 0.449 0.037 0.64 8e-3 0.174 0.014 0.366 0.017 0.572 0.1 1.327 0.204 2.651 0.091 3.979 9e-3 0.155 0.017 0.317 0.022 0.492 6e-3 0.206 0.01 0.38 0.01 0.516 0 0.194-0.016 0.372-0.045 0.537-0.031 0.165-0.046 0.345-0.046 0.537 0 0.772 2e-3 1.551 9e-3 2.336 7e-3 0.786 0.022 1.584 0.028 2.376 0 0.082-0.016 0.138-0.046 0.165-0.031 0.027-0.047 0.07-0.047 0.125s0.013 0.089 0.038 0.103c0.024 0.014 0.037 0.049 0.037 0.104 0 0.111-0.013 0.222-0.037 0.331-0.025 0.11-0.038 0.233-0.037 0.369 0 0.109 3e-3 0.217 9e-3 0.321 0.019 0.203 0.031 0.403 0.026 0.598-6e-3 0.216-0.051 0.426-0.087 0.637 2e-3 0.02 4e-3 0.047 4e-3 0.081 1e-3 0.143 2e-3 0.213 3e-3 0.353 2e-3 0.206 0.025 0.372 0.07 0.494 0.045 0.125 0.068 0.288 0.071 0.489 0 0.062 1e-3 0.091 2e-3 0.153 3e-3 0.226 0.074 0.48 0.217 0.755s0.305 0.523 0.487 0.753 0.36 0.433 0.535 0.613c0.174 0.183 0.293 0.282 0.356 0.296 0.114 0.053 0.252 0.163 0.412 0.341 0.159 0.179 0.24 0.381 0.244 0.602 6e-3 0.333-0.043 0.623-0.146 0.863m14.362-14.151c-0.043 0.539-0.101 1.08-0.11 1.621-0.014 0.821-0.116 1.621-0.283 2.406-0.192 0.895-0.392 1.786-0.593 2.678-0.042 0.185-0.085 0.375-0.155 0.543-0.612 1.488-1.249 2.952-2.135 4.172-0.225 0.468-0.556 0.896-0.941 1.209-0.653 0.533-1.518 0.87-2.354 0.572-0.32-0.012-0.636-0.111-0.95-0.269-0.946-0.471-1.756-1.223-2.413-2.236-0.513-0.792-0.987-1.631-1.465-2.462-0.448-0.78-0.741-1.672-0.956-2.602-0.343-1.481-0.669-2.97-0.973-4.467-0.065-0.319-0.011-0.687 0-1.031 0.015-0.461 0.1-0.935 0.05-1.382-0.4-3.651 0.342-6.909 1.868-9.914 0.377-0.743 0.798-1.43 1.294-2.037 0.76-0.931 1.651-1.358 2.687-1.456 1.002-0.093 1.886 0.38 2.803 0.735 0.109 0.045 0.21 0.137 0.305 0.229 1.54 1.482 2.762 3.315 3.482 5.692 0.064 0.214 0.117 0.439 0.153 0.667 0.249 1.592 0.5 3.187 0.733 4.782 0.056 0.379 0.048 0.772 0.071 1.202-0.037 0.426-0.082 0.885-0.118 1.348m11.883 1.309c-0.016-8e-3 -0.016-0.045-0.024-0.068 0.029-0.014 0.056-0.027 0.085-0.041 0.011 0.045 0.021 0.086 0.032 0.13-0.032-5e-3 -0.068-3e-3 -0.093-0.021m2.185-9.745c-0.037 0.858-0.367 1.74-0.603 2.562-0.2 0.69-0.498 1.302-0.875 1.858-0.037 0.076-0.072 0.154-0.111 0.228-0.011 0.096-0.044 0.189-0.103 0.269-0.051 0.07-0.101 0.143-0.152 0.215-0.191 0.33-0.385 0.628-0.582 0.855-0.171 0.199-0.324 0.306-0.46 0.345-0.324 0.257-0.692 0.445-1.092 0.566-0.061 0.027-0.125 0.045-0.192 0.049-0.19 0.049-0.382 0.086-0.579 0.112-6e-3 4e-3 -0.013 6e-3 -0.02 0.012-0.115 0.08-0.234 0.121-0.357 0.123-0.15 2e-3 -0.304-0.02-0.462-0.064h-2e-3c-0.181 4e-3 -0.361 0.014-0.538 0.043-0.481 0.084-0.895 0.337-1.352 0.467-0.051 0.121-0.101 0.247-0.148 0.384-0.059 0.171-0.105 0.343-0.138 0.514-0.031 0.169-0.047 0.29-0.047 0.358 3e-3 0.206 8e-3 0.41 0.018 0.614 9e-3 0.207 0.015 0.423 0.018 0.65 1e-3 0.115-1e-3 0.233-6e-3 0.358-5e-3 0.126-8e-3 0.257-6e-3 0.393 1e-3 0.137 0.01 0.28 0.025 0.427 0.015 0.149 0.023 0.304 0.026 0.463 2e-3 0.183-0.014 0.356-0.045 0.512-0.031 0.158-0.045 0.321-0.04 0.49 6e-3 0.191 0.02 0.386 0.043 0.584 0.023 0.196 0.041 0.39 0.052 0.578 2e-3 0.039-0.01 0.072-0.038 0.096-1e-3 2e-3 -2e-3 8e-3 -4e-3 0.01 0.021 0.104 0.04 0.212 0.056 0.317 5e-3 5e-3 8e-3 0.011 0.014 0.015 0.061 0.049 0.102 0.105 0.121 0.174 0.096 0.321 0.241 0.479 0.434 0.48 0.192 2e-3 0.458 0.364 0.712 0.267 0.34-0.144 0.508-0.208 0.828-0.216 0.052 0.021 0.079 0.035 0.13 0.063 0.113 0.147 0.168 0.224 0.274 0.393 0.034 0.104 0.051 0.18 0.053 0.216 7e-3 0.131-0.037 0.24-0.134 0.319-0.096 0.082-0.229 0.141-0.405 0.231-0.174 0.094-0.382 0.221-0.622 0.388-0.069 0.049-0.14 0.053-0.212 0.039-0.08 0.055-0.176 0.093-0.288 0.108-0.111 0.09-0.255 0.148-0.437 0.148h-5e-3c-0.014 6e-3 -0.027 0.012-0.041 0.018-0.079 0.039-0.157 0.078-0.235 0.118-0.312 0.162-0.616 0.335-0.928 0.493-0.641 0.324-1.348 0.616-2.08 0.593-0.029 6e-3 -0.058 0.016-0.086 0.031-0.028 0.018-0.057 0.027-0.086 0.031-0.287 0.043-0.506-0.039-0.661-0.233-0.155-0.196-0.231-0.321-0.231-0.366-1e-3 -0.091 0-0.188 7e-3 -0.292 5e-3 -0.103 0.021-0.177 0.048-0.224 0.047-0.061 0.085-0.108 0.121-0.155-0.032-0.233 0.032-0.48 0.193-0.65-0.025-0.072-0.052-0.146-0.085-0.241 0.152-0.01 0.313-0.086 0.48-0.226 0.167-0.141 0.269-0.38 0.304-0.716 0.012-0.113 0.047-0.238 0.108-0.376 0.06-0.139 0.12-0.286 0.179-0.443 0.059-0.158 0.111-0.331 0.154-0.522 0.044-0.188 0.063-0.402 0.058-0.647-3e-3 -0.154-0.021-0.298-0.05-0.433-0.03-0.132-0.045-0.269-0.048-0.402-2e-3 -0.202 0.025-0.465 0.083-0.784 0.059-0.319 0.086-0.605 0.083-0.856h0.061c-0.057-0.226-0.094-0.479-0.11-0.751s-0.03-0.551-0.041-0.837c-0.01-0.284-0.026-0.557-0.05-0.819-3e-3 -0.033-9e-3 -0.063-0.012-0.094-0.049-0.118-0.071-0.249-0.063-0.383-0.015-0.064-0.028-0.133-0.045-0.189 0-0.021-4e-3 -0.039-0.011-0.051s-0.011-0.026-0.011-0.05c-1e-3 -0.139 0.018-0.251 0.058-0.343 0.041-0.092 0.06-0.183 0.059-0.274-1e-3 -0.113-0.023-0.233-0.065-0.358-0.042-0.124-0.064-0.243-0.065-0.358-1e-3 -0.091 0.022-0.171 0.069-0.239 0.023-0.034 0.04-0.073 0.051-0.118-0.011-0.143-0.021-0.286-0.029-0.429-0.01-0.034-0.017-0.067-0.029-0.103-0.049-0.137-0.075-0.261-0.076-0.374-1e-3 -0.103 8e-3 -0.204 0.022-0.306-0.069-0.572-0.13-1.146-0.123-1.714 0.02-1.55-0.247-3.063-0.404-4.598-0.179-0.644-0.351-1.296-0.615-1.905-0.285-0.655-0.736-1.198-0.877-1.896-6e-3 0.021-8e-3 0.033-0.013 0.053-0.218-0.313-0.423-0.634-0.572-0.979 0.142 0 0.221-4e-3 0.388-0.02-0.012 4e-3 -0.019 4e-3 -0.031 6e-3 -0.041 0.01-0.07 0.025-0.089 0.051 0.041 0.073 0.061 0.11 0.105 0.181 0.062-0.012 0.092-0.018 0.157-0.031 0.127-0.025 0.189-0.105 0.182-0.237 0.067 6e-3 0.137 8e-3 0.207 8e-3 0.162-0.072 0.352-0.086 0.529-0.043 0.061-8e-3 0.12-0.02 0.18-0.031 0.116-0.023 0.24 0.033 0.366 0.111 0.683-6e-3 1.365-0.035 2.048-0.059 7e-3 0 0.015 0 0.022-2e-3 0.073-0.016 0.147-0.021 0.221-0.018 0.087-4e-3 0.172-6e-3 0.26-8e-3 0.204-2e-3 0.39 0 0.563 2e-3 0.092-2e-3 0.185-4e-3 0.277-4e-3 0.056 0 0.109 6e-3 0.159 0.018 0.05 2e-3 0.102 4e-3 0.148 8e-3 0.301 0.02 0.557 0.045 0.77 0.078 0.056 8e-3 0.105 0.016 0.158 0.023 0.457-0.029 0.832-0.068 1.216-0.125 4e-3 -2e-3 8e-3 -2e-3 0.012-6e-3 0.101-0.061 0.2-0.116 0.297-0.161 0.162-0.072 0.309-0.094 0.448-0.057 0.058-8e-3 0.115-0.021 0.174-0.023 0.043 0 0.088 2e-3 0.132 8e-3 0.12 0.016 0.233 0.033 0.346 0.063 0.012-4e-3 0.021-8e-3 0.036-0.012 0.241-0.033 0.526 0.13 0.831 0.414 0.303 0.282 0.592 0.59 0.842 0.886 0.252 0.296 0.458 0.545 0.623 0.765 0.164 0.22 0.259 0.366 0.302 0.462 0.092 0.212 0.188 0.395 0.279 0.555 0.084 0.147 0.15 0.316 0.204 0.512 0.046 0.087 0.074 0.192 0.076 0.314 0.03 0.152 0.058 0.319 0.084 0.513 0.024 0.179 0.045 0.385 0.063 0.604 0.127 0.537 0.294 1.074 0.27 1.639m1.537 10.859c-0.098 0.014-0.2 2e-3 -0.301 0-1e-3 0-2e-3 2e-3 -4e-3 2e-3 0 0 0-2e-3 -1e-3 -2e-3h1e-3c0.015-0.106 0.03-0.216 0.045-0.322 5e-3 2e-3 9e-3 2e-3 0.014 4e-3 -0.019 0.104-0.04 0.212-0.059 0.318h4e-3c0.09-0.048 0.179-0.101 0.272-0.142 0.025-0.01 0.065 0.012 0.098 0.018-0.023 0.045-0.041 0.122-0.069 0.124m198.62 10.097c-0.385 1.003-0.832 1.983-1.291 2.955-0.392 0.825-1.031 1.445-1.785 1.947-0.339 0.227-0.691 0.435-1.045 0.639-0.709 0.411-1.362 0.888-1.964 1.454-0.567 0.531-1.174 1.023-1.793 1.498-1.49 1.139-2.211 2.666-2.283 4.508-0.037 1.002-0.017 2.004 7e-3 3.005 0.029 1.228 0.018 2.45-0.172 3.666-0.195 1.244-0.04 2.438 0.484 3.587 0.446 0.979 0.886 1.96 1.335 2.938 0.31 0.674 0.368 1.358 0.095 2.052-0.063 0.163-0.203 0.294-0.348 0.494-0.714-0.28-1.191-0.699-1.672-1.1-0.811-0.674-1.651-1.24-2.746-1.356-0.605-0.066-1.104-0.417-1.521-0.862-0.485-0.521-0.984-1.008-1.749-1.094-0.285-0.031-0.456-0.276-0.521-0.529-0.134-0.535-0.263-1.08-0.318-1.629-0.051-0.5 0.124-0.954 0.582-1.243 0.58-0.368 0.828-0.948 0.937-1.579 0.105-0.62 0.183-1.251 0.193-1.878 0.046-3.082 0.078-6.161 0.089-9.242 4e-3 -0.965-0.082-1.929-0.1-2.894-0.012-0.666-0.04-1.341 0.053-1.997 0.213-1.518 0.172-3.036 0.113-4.556-0.026-0.668-0.061-1.335-0.104-2.003-0.061-0.928 4e-3 -1.847 0.083-2.775 0.117-1.402 0.188-2.815-0.04-4.219-0.125-0.778-0.1-1.553 0.054-2.326 0.109-0.545 0.203-1.096 0.273-1.646 0.094-0.737 0.119-1.477-0.07-2.212-0.132-0.501-0.246-1.013-0.303-1.526-0.091-0.81-0.445-1.482-0.942-2.102-0.186-0.231-0.4-0.443-0.556-0.695-0.084-0.14-0.141-0.359-0.093-0.508 0.083-0.263 0.358-0.235 0.57-0.187 0.322 0.072 0.649 0.159 0.952 0.296 1.086 0.479 2.173 0.957 3.236 1.48 1.104 0.547 2.246 0.907 3.45 1.197 2.252 0.539 4.387 1.501 6.147 3.007 2.087 1.785 3.17 4.181 3.31 6.94 0.086 1.704 0.091 3.413 0.095 5.12 3e-3 1.161-0.228 2.295-0.642 3.375m31.653 25.084c-0.279 1.195-0.484 2.4-0.586 3.622-0.088 1.047-0.375 2.05-0.792 3.005-0.653 1.494-1.354 2.97-2.054 4.445-0.355 0.751-0.928 1.335-1.555 1.87-0.731 0.626-1.453 1.267-2.183 1.897-0.109 0.096-0.232 0.188-0.365 0.245-1.024 0.434-2.021 0.955-3.124 1.158-0.543 0.097-1.104 0.11-1.659 0.126-0.413 0.012-0.806-0.11-1.146-0.365-0.633-0.476-1.352-0.777-2.099-1.005-1.647-0.504-2.987-1.459-4.13-2.725-1.878-2.078-3.51-4.322-4.698-6.87-0.91-1.949-1.81-3.905-2.681-5.875-0.788-1.78-1.294-3.647-1.668-5.549-0.094-0.169-0.177-0.346-0.242-0.533-0.214-0.61-0.245-1.288-0.195-1.967-0.205-1.248-0.4-2.495-0.609-3.739-0.105-0.622-0.237-1.239-0.368-1.856-0.078-0.371-0.117-0.741 0.064-1.088 3e-3 -6e-3 5e-3 -0.01 7e-3 -0.016-0.038-0.876-0.024-1.757 0.045-2.633 0.053-0.658 0.211-1.302 0.367-1.944 0.044-1.3 0.223-2.589 0.541-3.863 0.372-1.492 0.957-2.88 1.864-4.136 1.176-1.627 2.409-3.205 3.873-4.589 1.085-1.025 2.246-1.94 3.617-2.563 0.962-0.438 1.96-0.723 3.018-0.65 1.375 0.096 2.684 0.533 3.971 0.984 0.54 0.191 0.991 0.641 1.477 0.981 0.607 0.424 1.225 0.839 1.806 1.3 0.489 0.39 0.965 0.81 1.386 1.272 0.346 0.382 0.612 0.837 0.896 1.271 0.788 1.214 1.563 2.437 2.354 3.646 0.713 1.094 1.316 2.248 1.753 3.475 0.732 2.061 1.427 4.137 2.088 6.224 0.212 0.665 0.292 1.378 0.388 2.074 0.184 1.36 0.352 2.723 0.499 4.085 0.167 1.551 0.302 3.104 0.454 4.655 0.068 0.7 0.146 1.401 0.188 1.796-9e-3 1.51-0.232 2.678-0.502 3.835m46.57-28.758c-0.03 0.271-0.139 0.504-0.374 0.655-0.155 0.1-0.317 0.195-0.485 0.269-0.963 0.425-1.656 1.146-2.122 2.056-0.44 0.854-0.826 1.744-1.142 2.652-0.637 1.829-1.026 3.724-1.323 5.633-0.292 1.874-0.708 3.717-1.204 5.546-0.496 1.827-0.944 3.659-1.133 5.557-0.108 1.102-0.419 2.186-0.688 3.266-0.439 1.767-0.811 3.54-1.093 5.342-0.252 1.609-0.723 3.182-1.095 4.772-0.161 0.687-0.322 1.374-0.476 2.061-0.196 0.878-0.233 1.77-0.124 2.658 0.101 0.825 0.03 1.629-0.139 2.435-0.209 0.981-0.439 1.956-0.608 2.945-0.176 1.021-0.329 2.051-0.422 3.084-0.15 1.672-0.679 2.258-2.32 2.399-0.59 0.053-1.188 0.043-1.781 0.076-0.704 0.037-1.249-0.255-1.57-0.856-0.364-0.687-0.723-1.39-0.955-2.127-0.639-2.016-1.242-4.046-1.797-6.086-0.476-1.755-0.862-3.534-1.296-5.299-0.089-0.358-0.205-0.713-0.333-1.059-0.028-0.084-0.146-0.135-0.305-0.269-0.053 0.545-0.055 1.018-0.151 1.469-0.326 1.526-0.546 3.065-0.739 4.612-0.224 1.768-0.607 3.512-0.918 5.267-0.109 0.619-0.246 1.225-0.164 1.872 0.202 1.594-1.159 2.369-2.344 2.314-0.627-0.027-1.252-0.113-1.871-0.214-0.625-0.1-1.111-0.47-1.401-1.009-0.297-0.551-0.558-1.137-0.721-1.739-0.468-1.719-0.887-3.451-1.313-5.179-0.746-3.03-1.526-6.047-2.624-8.974-0.191-0.513-0.303-1.08-0.314-1.627-0.047-2.062-0.443-4.057-1.045-6.016-0.587-1.917-1.159-3.838-1.517-5.815-0.211-1.172-0.393-2.341-0.401-3.538-0.011-1.458-0.323-2.872-0.704-4.273-0.293-1.074-0.59-2.148-0.88-3.223-0.311-1.152-0.481-2.324-0.563-3.516-0.089-1.319-0.495-2.545-1.133-3.695-0.351-0.635-0.764-1.174-1.62-1.158-0.253 4e-3 -0.554-0.21-0.756-0.4-0.417-0.396-0.626-0.921-0.702-1.485-0.078-0.568 0.145-0.957 0.692-1.104 0.389-0.104 0.808-0.167 1.207-0.144 0.999 0.063 1.999 0.169 2.943 0.547 1.016 0.404 2.067 0.563 3.163 0.52 0.815-0.031 1.635-0.023 2.45 0.018 0.792 0.039 1.117 0.479 1.005 1.267-0.077 0.539-0.293 0.996-0.779 1.288-0.159 0.096-0.318 0.191-0.479 0.284-0.46 0.261-0.688 0.656-0.686 1.188 1e-3 0.335-7e-3 0.668-3e-3 1.004 6e-3 0.668 0.045 1.337 0.021 2.005-0.053 1.429 0.195 2.809 0.592 4.171 0.354 1.212 0.746 2.415 0.895 3.676 0.109 0.921 0.176 1.849 0.304 2.768 0.092 0.66 0.188 1.331 0.397 1.958 0.462 1.384 0.7 2.808 0.938 4.234 0.287 1.723 0.577 3.441 0.888 5.159 0.086 0.474 0.201 0.95 0.386 1.392 0.664 1.596 0.867 3.295 1.186 4.971 0.199 1.057 0.424 2.111 0.672 3.158 0.099 0.425 0.29 0.825 0.5 1.405 0.174-0.329 0.314-0.49 0.349-0.673 0.313-1.641 0.601-3.285 0.908-4.928 0.253-1.349 0.498-2.701 0.788-4.042 0.466-2.144 0.885-4.29 1.057-6.479 0.068-0.859-7e-3 -1.702-0.236-2.537-0.41-1.503-0.832-3.003-1.059-4.553-0.065-0.438-0.189-0.869-0.323-1.294-0.945-2.981-1.447-6.063-2.081-9.111-0.176-0.849-0.2-1.688 0.073-2.53 0.101-0.31 0.106-0.66 0.096-0.988-0.014-0.403 0.123-0.727 0.384-1.011 0.125-0.136 0.258-0.269 0.399-0.387 1-0.841 1.922-0.825 2.886 0.046 0.453 0.411 0.765 0.913 0.895 1.511 0.393 1.813 0.795 3.626 1.155 5.445 0.189 0.943 0.31 1.905 0.441 2.858 0.096 0.703 0.195 1.409 0.532 2.038 0.345 0.637 0.493 1.312 0.579 2.017 0.14 1.142 0.281 2.284 0.445 3.425 0.079 0.549 0.164 1.105 0.327 1.635 0.597 1.923 0.91 3.902 1.252 5.877 0.277 1.611 0.653 3.196 1.246 4.731 0.319 0.827 0.481 1.713 0.735 2.565 0.433 1.459 0.876 2.913 1.328 4.367 0.063 0.194 0.197 0.367 0.384 0.706 0.272-1.221 0.516-2.262 0.732-3.307 0.429-2.072 0.808-4.151 1.01-6.265 0.098-1.025 0.376-2.043 0.664-3.04 0.484-1.684 0.862-3.376 0.949-5.134 0.069-1.421 0.473-2.775 0.867-4.132 0.405-1.388 0.961-2.754 1.055-4.205 0.166-2.528 0.709-4.994 1.131-7.481 0.03-0.183 0.054-0.367 0.081-0.551 0.098-0.663-0.107-1.164-0.751-1.451-0.27-0.121-0.529-0.272-0.772-0.44-0.289-0.198-0.438-0.49-0.473-0.847-0.034-0.363 0.06-0.694 0.374-0.87 0.349-0.196 0.731-0.357 1.12-0.445 0.356-0.082 0.739-0.063 1.109-0.059 1.049 0.014 2.064-0.173 3.087-0.377 1.309-0.261 2.633-0.442 3.952-0.633 0.25-0.037 0.522 6e-3 0.771 0.068 0.648 0.159 0.985 0.671 0.908 1.333m19.977 41.22c-0.399 0.649-0.921 1.134-1.735 1.269-0.347 0.057-0.676 0.28-0.984 0.473-0.251 0.154-0.463 0.37-0.684 0.568-0.607 0.541-1.32 0.856-2.128 0.839-1.165-0.025-2.179 0.353-3.135 0.973-0.633 0.411-1.33 0.65-2.085 0.725-1.171 0.112-2.224 0.529-3.2 1.185-0.521 0.351-1.087 0.648-1.663 0.897-0.636 0.276-1.085 0.045-1.29-0.621-0.188-0.622-0.182-1.251 0.146-1.837 0.216-0.389 0.444-0.772 0.686-1.146 0.565-0.873 0.813-1.821 0.692-2.86-0.035-0.294-0.023-0.596-0.07-0.888-0.217-1.366-0.219-2.723-0.032-4.103 0.114-0.835 0.011-1.705-0.05-2.553-0.082-1.186-0.227-2.365-0.323-3.55-0.157-1.892-0.03-3.784 0.067-5.676 0.037-0.741 0.063-1.486 0.022-2.226-0.147-2.709-0.143-5.419-0.024-8.13 0.062-1.377 0.011-2.741-0.23-4.102-0.182-1.03-0.181-2.065 0.019-3.103 0.104-0.541 0.12-1.104 0.135-1.658 0.02-0.704-0.014-1.411-4e-3 -2.115 0.018-1.229-0.512-1.979-1.714-2.401-0.067-0.023-0.133-0.061-0.247-0.115-0.296-0.551-0.243-1.059-0.072-1.566 0.302-0.894 0.971-1.437 1.91-1.411 0.8 0.021 1.545-0.121 2.287-0.388 0.784-0.28 1.593-0.34 2.413-0.188 0.557 0.104 1.094 0.098 1.652-0.053 0.339-0.091 0.729-0.041 1.093-4e-3 0.293 0.027 0.575 0.145 0.866 0.195 0.62 0.108 1.178-0.033 1.649-0.468 0.192-0.177 0.39-0.346 0.58-0.52 1.228-1.115 2.64-1.055 4.069-0.568 0.803 0.272 1.212 0.956 1.334 1.783 0.199 1.36-0.201 2.504-1.327 3.333-1.096 0.806-2.329 1.324-3.688 1.435-0.691 0.055-1.313 0.22-1.882 0.598-0.844 0.561-1.728 1.004-2.763 1.092-0.557 0.045-0.852 0.426-0.966 0.937-0.065 0.287-0.075 0.589-0.084 0.885-0.041 1.223 0.073 2.45-0.146 3.669-0.012 0.072-4e-3 0.146-1e-3 0.222 0.021 0.42 0.235 0.617 0.64 0.572 0.184-0.021 0.364-0.076 0.549-0.1 0.401-0.049 0.808-0.138 1.209-0.122 0.648 0.027 1.254-0.072 1.833-0.364 0.575-0.29 1.188-0.414 1.832-0.378 1.071 0.063 1.806 0.625 2.137 1.648 0.563 1.727-0.166 3.914-1.658 4.955-0.494 0.347-1.028 0.598-1.652 0.578-0.629-0.018-1.153 0.235-1.623 0.629-0.257 0.214-0.506 0.438-0.77 0.642-0.356 0.276-0.739 0.46-1.213 0.495-0.641 0.046-0.929 0.334-1.075 0.922-0.02 0.072-0.04 0.148-0.036 0.22 0.069 1.444-0.271 2.885-0.023 4.333 0.073 0.434 0.059 0.887 0.038 1.331-0.128 2.821-0.125 5.642 0.199 8.45 0.072 0.62 0.253 1.233 0.434 1.835 0.094 0.313 0.265 0.617 0.461 0.882 0.496 0.675 1.196 0.883 1.969 0.561 0.44-0.186 0.867-0.431 1.254-0.713 1.457-1.061 3.127-1.29 4.859-1.317 0.887-0.016 1.516 0.392 1.826 1.195 0.65 1.669 0.69 3.331-0.283 4.918m21.671-11.018c-0.572 0.407-1.167 0.81-1.805 1.094-0.968 0.436-1.802 1.027-2.544 1.769-0.504 0.505-1.058 0.942-1.739 1.178-0.277 0.094-0.571 0.162-0.861 0.186-0.334 0.028-0.558-0.195-0.59-0.536-0.051-0.539 0.104-1.035 0.384-1.482 0.255-0.409 0.542-0.8 0.832-1.184 0.492-0.653 0.707-1.356 0.598-2.191-0.077-0.582-0.052-1.185-0.014-1.776 0.117-1.856 0.122-3.71-0.055-5.566-0.066-0.696-0.018-1.407 0.014-2.109 0.041-0.868-0.071-1.711-0.407-2.509-0.646-1.525-1.805-1.729-2.936-0.521-0.758 0.81-1.191 1.804-1.42 2.863-0.257 1.204-0.6 2.372-1.043 3.519-0.243 0.626-0.374 1.282-0.335 1.963 0.125 2.151 0.252 4.302 0.384 6.45 0.016 0.259 0.054 0.52 0.113 0.771 0.148 0.645 0.467 1.176 1.098 1.456 0.742 0.33 0.894 0.936 0.774 1.66-0.249 1.506-1.185 2.431-2.548 2.983-0.206 0.081-0.43 0.12-0.648 0.159-0.496 0.088-0.916 0.304-1.227 0.706-0.372 0.479-0.811 0.729-1.449 0.563-0.468-0.122-0.875 0.092-1.229 0.39-0.313 0.263-0.592 0.564-0.911 0.817-0.428 0.341-0.893 0.263-1.106-0.127-0.561-0.804 0-1.831 0.376-2.611 0.046-0.094 0.092-0.188 0.136-0.286 8e-3 -0.016 0.014-0.031 0.019-0.043 0.012-0.031 0.024-0.061 0.035-0.091 0.097-0.258 0.188-0.515 0.271-0.775 0.152-0.473 0.286-0.959 0.315-1.457-0.107-0.362-0.038-0.73 0.076-1.084 0.242-0.76 0.23-1.53 0.253-2.314 0.052-1.778 0.158-3.558 0-5.338-0.028-0.331 0.026-0.668 0.063-1.001 0.188-1.784 0.168-3.564-0.199-5.324-0.422-2.028-0.44-4.058-0.088-6.09 0.25-1.443 0.176-2.888 0.107-4.336-0.104-2.227-0.218-4.45-0.327-6.677-0.085-1.742-0.173-3.485-0.255-5.228-0.045-0.982-0.419-1.768-1.215-2.392-0.813-0.639-0.736-1.509 0.128-2.111 0.622-0.433 1.344-0.662 2.082-0.738 0.866-0.089 1.659-0.373 2.459-0.671 2.193-0.815 4.387-1.625 6.588-2.417 0.558-0.203 1.132-0.362 1.711-0.493 1.584-0.357 2.742 0.104 3.66 1.454 0.794 1.164 1.203 2.474 1.273 3.869 0.214 4.322-0.296 8.526-2.142 12.502-0.247 0.531-0.385 1.113-0.571 1.668 0.365 0.502 0.701 0.943 1.015 1.399 1.108 1.605 2.012 3.312 2.235 5.279 0.104 0.917 0.086 1.854 0.041 2.777-0.05 1.045-0.075 2.067 0.171 3.101 0.127 0.523 0.05 1.105 0.028 1.658-0.036 0.928-0.113 1.853-0.151 2.778-0.03 0.748 0.104 1.407 0.943 1.697 0.294 0.104 0.418 0.405 0.463 0.717 0.123 0.845-0.134 1.558-0.83 2.052" fill="#FFFFFF"></path>
<polygon points="140.13 200.51 140.05 200.54 140.05 200.49" fill="#FFFFFF"></polygon>
<path d="m137.44 204.5c-0.037-0.104-0.078-0.206-0.124-0.302-0.044-0.095-0.093-0.192-0.146-0.29-0.054-0.097-0.105-0.245-0.159-0.443-0.025-0.235-0.067-0.445-0.125-0.631-4e-3 -6e-3 -7e-3 -0.012-0.011-0.016-0.013-4e-3 -0.033-0.031-0.042-0.046-0.027-0.031-0.057-0.068-0.061-0.072-0.053-0.057-0.13-0.158-0.202-0.189 0.134 0.059 7e-3 6e-3 -0.036-0.024-0.038-0.029-0.077-0.057-0.117-0.084-0.087-0.061-0.179-0.115-0.271-0.167-0.085-0.047-0.173-0.092-0.261-0.133-0.045-0.021-0.092-0.047-0.14-0.064-0.011-4e-3 -0.024-8e-3 -0.039-0.014-0.332-0.132-0.671-0.241-1.009-0.355-0.031 2e-3 -0.061 4e-3 -0.091 4e-3 -0.04 4e-3 -0.077-2e-3 -0.114-6e-3 -0.019 4e-3 -0.039 8e-3 -0.057 0.014-0.129 0.046-0.262 0.104-0.397 0.175 0.032-0.023 0.056-0.051 0.078-0.08-0.101 0.07-0.228 0.115-0.38 0.121 0.015 0.018 0.027 0.031 0.036 0.029-0.109 0.069-0.234 0.134-0.376 0.192-0.143 0.059-0.276 0.151-0.397 0.278-0.122 0.126-0.226 0.298-0.313 0.516-0.086 0.218-0.127 0.531-0.122 0.94 2e-3 0.251 8e-3 0.49 0.018 0.718s0.015 0.455 0.018 0.683c0 0.047-3e-3 0.08-9e-3 0.104-7e-3 0.021-0.01 0.045-0.01 0.068 0 0.047 8e-3 0.103 0.022 0.171 0.015 0.068 0.022 0.125 0.023 0.172 1e-3 0.136-0.014 0.267-0.047 0.391-0.034 0.127-0.048 0.247-0.047 0.36 0 0.068 0.012 0.194 0.035 0.375 0.022 0.184 0.034 0.341 0.036 0.479 2e-3 0.204 3e-3 0.308 5e-3 0.512 3e-3 0.251 0.016 0.496 0.04 0.733 0.023 0.239 0.029 0.484 0.019 0.735 0.018 0.178 0.027 0.267 0.046 0.444 0.028 0.136 0.085 0.267 0.168 0.391 0.035 0.051 0.069 0.1 0.103 0.146 0.025 0.025 0.05 0.051 0.078 0.074 7e-3 4e-3 0.012 9e-3 0.021 0.013 0.066 0.045 0.136 0.082 0.207 0.117 0.026 6e-3 0.114 0.039 0.12 0.041 0.079 0.023 0.16 0.041 0.24 0.057 9e-3 -2e-3 0.182 0.02 0.205 0.02 0.175 8e-3 0.351 2e-3 0.526-0.014 0.037-2e-3 0.072-8e-3 0.109-0.012 6e-3 -2e-3 0.03-4e-3 0.074-0.012 0.1-0.018 0.2-0.037 0.298-0.059 0.169-0.039 0.336-0.082 0.502-0.135 0.175-0.052 0.348-0.112 0.518-0.181 0.016-6e-3 0.06-0.025 0.088-0.037 0.066-0.031 0.132-0.059 0.195-0.097 0.189-0.109 0.157-0.09 0.32-0.261 0.129-0.139 0.136-0.15 0.257-0.354 0.218-0.366 0.298-0.59 0.427-0.994 0.112-0.356 0.201-0.721 0.283-1.085v-9e-3c-7e-3 -0.057-0.011-0.107-0.011-0.154-1e-3 -0.112 0.021-0.204 0.068-0.274 0.047-0.068 0.07-0.161 0.068-0.276-0.033-0.706-0.048-1.063-0.081-1.772-1e-3 -0.184-0.019-0.326-0.056-0.431" fill="#FFFFFF"></path>
<path d="m120.09 167.86c1.347 0.716 2.755 1.292 4.197 1.784 4.726 1.611 9.574 1.991 14.512 1.411 4.533-0.533 8.882-1.738 13.038-3.622 3.554-1.611 6.742-3.756 9.436-6.599 3.292-3.479 5.46-7.583 6.621-12.203 0.723-2.878 1.31-5.791 1.908-8.699 0.831-4.04 1.462-8.113 1.848-12.219 0.304-3.217 0.479-6.446 0.478-9.678-1e-3 -4.867-0.059-9.732-0.097-14.6-0.015-1.894-0.048-3.788-0.063-5.683-2e-3 -0.287 0.05-0.573 0.076-0.858 0.74-0.211 1.427-0.371 2.089-0.602 2.908-1.018 5.812-2.043 8.709-3.092 2.061-0.747 4.071-1.614 6.001-2.663 1.013-0.552 1.989-1.161 2.859-1.923 1.478-1.292 2.256-2.91 2.316-4.88 0.042-1.345-0.099-2.671-0.356-3.986-0.157-0.8-0.296-1.615-0.57-2.377-0.696-1.945-2.074-3.128-4.147-3.421-0.512-0.072-1.037-0.111-1.552-0.083-2.155 0.112-4.283 0.412-6.375 0.966-2.374 0.629-4.652 1.531-6.954 2.367-1.465 0.532-2.931 1.065-4.419 1.525-0.701 0.216-1.453 0.338-2.187 0.36-1.378 0.042-2.456-0.568-3.074-1.819-0.311-0.626-0.581-1.298-0.714-1.98-0.342-1.747-0.645-3.505-0.874-5.27-0.314-2.43-0.564-4.869-0.809-7.307-0.211-2.116-0.171-4.229 0.235-6.325 0.762-3.93 2.658-7.22 5.639-9.878 1.164-1.038 2.358-2.043 3.573-3.02 2.182-1.754 4.559-3.174 7.139-4.287 6.818-2.942 13.717-5.682 20.612-8.436 7.446-2.973 14.897-5.938 22.247-9.146 1.156-0.505 2.308-1.023 3.448-1.563 1.2-0.568 2.18-1.406 2.915-2.518 0.551-0.833 0.558-1.67-0.019-2.491-0.212-0.303-0.443-0.597-0.695-0.868-0.638-0.687-1.383-1.237-2.221-1.658-2.125-1.071-4.162-2.294-6.181-3.549-2.145-1.333-4.278-2.685-6.445-3.98-3.326-1.988-6.789-3.677-10.554-4.682-0.203-0.054-0.456-0.047-0.55-0.307h-4.236c-0.156 0.303-0.477 0.333-0.746 0.423-1.159 0.395-2.325 0.769-3.489 1.152-2.329 0.766-4.637 1.58-6.841 2.667-10.558 5.205-21.053 10.53-31.458 16.035-9.06 4.794-18.042 9.726-26.843 14.985-0.922 0.552-1.82 1.15-2.694 1.778-1.028 0.741-1.946 1.609-2.724 2.617-1.252 1.624-1.849 3.445-1.723 5.506 0.091 1.507 0.533 2.914 1.119 4.288 0.569 1.336 1.298 2.586 2.049 3.826 3.941 6.514 7.827 13.06 11.449 19.758 2.88 5.327 5.571 10.744 7.825 16.371 3.023 7.545 5.231 15.303 6.218 23.393 0.504 4.131 0.433 8.234-0.496 12.292-2.533 11.064-9.13 18.781-19.419 23.425-0.853 0.383-1.745 0.634-2.673 0.743-2.019 0.235-3.778-0.629-4.483-2.807-0.266-0.819-0.392-1.66-0.408-2.52-0.029-1.571 0.259-3.104 0.54-4.638 0.172-0.939 0.409-1.868 0.53-2.926-0.299 0.095-0.507 0.137-0.691 0.227-1.441 0.703-2.79 1.552-4.027 2.573-3.304 2.729-5.191 6.235-5.758 10.475-0.307 2.3-0.289 4.595 0.05 6.885 0.756 5.073 3.323 8.901 7.889 11.331" fill="#FFFFFF"></path>
<path d="m223.89 38.688c-3.246 2.805-5.77 6.18-7.809 9.933-3.853 7.09-7.218 14.404-10.112 21.936-3.696 9.62-6.556 19.486-8.684 29.567-0.93 4.409-1.464 8.867-1.529 13.374-0.05 3.571 0.262 7.117 0.787 10.655 0.694 4.69 2.735 8.674 6.083 12.002 3.201 3.182 7.018 5.344 11.308 6.673 4.14 1.282 8.353 1.741 12.648 0.896 2.782-0.549 5.317-1.627 7.46-3.532 0.16-0.144 0.354-0.25 0.539-0.378 0.455 0.253 0.875 0.489 1.299 0.718 1.861 1.012 3.755 1.948 5.771 2.625 2.588 0.87 5.222 1.063 7.913 0.631 2.063-0.331 4.061-0.896 6.008-1.633 11.208-4.25 17.767-13.882 18.841-24.922 0.167-1.706 0.221-3.411 0.158-5.119-0.101-2.777 0.679-5.282 2.273-7.538 0.494-0.697 1.017-1.374 1.56-2.033 0.829-1.009 1.587-2.059 2.092-3.273 0.063-0.151 0.176-0.282 0.322-0.511 0.352 0.532 0.492 1.029 0.68 1.502 2.357 5.933 4.599 11.917 7.086 17.795 4.43 10.462 8.599 21.047 13.513 31.29 1.146 2.39 1.901 3.861 3.107 5.649 0.098 0.144 0.223 0.271 0.39 0.473 0.341-0.337 0.633-0.609 0.908-0.898 3.483-3.671 6.676-7.585 9.707-11.631 2.117-2.824 4.063-5.9 6.277-8.525 0.179-0.212 0.404-0.475 0.711-0.712 0.173 0.358 0.338 0.685 0.487 1.018 3.491 7.753 6.979 15.506 10.468 23.262 2.515 5.585 4.923 11.177 7.545 16.758 0.167 0.353 0.394 0.819 0.603 1.211 0.518-0.588 0.83-1.205 1.337-2.064 1.343-2.283 3.87-9.385 5.319-14.103 4.731-15.399 8.813-30.748 13.478-46.169 1.506-4.974 2.973-9.96 4.457-14.94 0.502-1.688 0.94-2.706 3.518-2.914 1.514-0.123 3.024-0.367 4.513-0.674 2.643-0.546 5.133-1.506 7.338-3.092 0.66-0.475 1.305-0.996 1.864-1.583 1.483-1.556 2.183-3.455 2.055-5.591-0.183-3.097-1.534-5.698-3.625-7.94-0.252-0.27-0.547-0.504-0.845-0.725-1.197-0.892-2.538-1.353-4.045-1.356-1.486-5e-3 -2.859 0.404-4.17 1.059-3.608 1.804-6.146 4.607-7.712 8.31-0.17 0.407-0.342 0.813-0.52 1.231-0.148-0.062-0.237-0.141-0.323-0.202-1.618-1.133-2.399-2.192-3.156-3.67-0.87-1.697-1.223-3.486-0.956-5.394 0.187-1.346 0.63-2.594 1.289-3.771 1.093-1.953 2.39-3.763 3.932-5.388 3.186-3.358 7.021-5.557 11.58-6.458 1.753-0.347 3.524-0.518 5.302-0.678 4.277-0.388 8.524-0.264 12.753 0.579 6.519 1.3 12.987 2.809 19.406 4.532 5.164 1.387 10.312 2.825 15.47 4.225 4.825 1.309 9.723 2.084 14.74 2.046 4.535-0.035 9.062-0.19 13.557-0.842 3.573-0.517 7.084-1.305 10.485-2.526 0.974-0.351 1.918-0.806 2.824-1.307 1.085-0.599 1.964-1.455 2.654-2.498 0.296-0.449 0.377-0.913 0.437-1.458 0.186-1.713 0.244-2.974-0.015-4.734-0.06-0.398-0.052-1.3-0.108-1.7-0.249-1.789-0.674-3.241-1.157-4.956-0.905-3.216-2.11-6.421-3.041-9.629-0.389-1.336-1.447-3.109-2.371-4.086-0.071 0.018-0.15 0.02-0.21 0.055-0.574 0.343-1.149 0.682-1.715 1.038-8.295 5.22-17.153 9.147-26.64 11.637-5.508 1.446-11.102 2.388-16.78 2.829-3.448 0.268-6.899 0.424-10.355 0.329-2.265-0.062-4.526-0.215-6.79-0.319-5.645-0.257-11.292-0.292-16.936-6e-3 -2.56 0.13-5.11 0.362-7.636 0.835-5.467 1.025-10.568 2.96-15.227 6.024-1.338 0.88-2.604 1.851-3.773 2.944-4.304 4.022-6.433 8.998-6.512 14.87-0.038 2.772 0.418 5.474 1.204 8.124 0.699 2.355 1.642 4.615 2.721 6.82 0.647 1.326 0.867 2.678 0.246 4.08-0.029 0.068-0.054 0.139-0.078 0.209-5.618 16.636-11.236 33.271-16.848 49.908-0.582 1.726-1.047 2.985-1.791 4.647-0.081 0.181-0.388 0.843-0.551 1.111-0.181-0.46-0.334-0.864-0.458-1.211-2.102-5.91-4.198-11.823-6.301-17.735-0.906-2.552-1.789-5.116-2.751-7.65-0.571-1.503-0.506-2.88 0.356-4.25 0.514-0.815 0.958-1.676 1.405-2.532 2.245-4.309 3.945-8.806 4.66-13.637 0.371-2.509 0.515-5.022 0.127-7.547-0.575-3.744-2.26-6.882-5.097-9.395-0.784-0.694-1.653-1.254-2.646-1.617-1.678-0.615-3.281-0.456-4.828 0.415-0.685 0.387-1.292 0.876-1.818 1.458-1.509 1.667-2.73 3.511-3.513 5.637-0.914 2.484-1.559 5.036-1.899 7.659-0.337 2.592-0.337 5.188 0.027 7.779 0.493 3.526 1.579 6.865 3.196 10.035 0.136 0.265 0.267 0.532 0.38 0.806 0.305 0.744 0.248 1.452-0.246 2.104-0.248 0.325-0.507 0.643-0.755 0.967-1.691 2.213-3.308 4.621-5.074 6.642-0.715 0.817-1.465 1.56-2.384 2.234-0.104-0.218-0.194-0.37-0.251-0.535-0.857-2.413-1.695-4.834-2.566-7.242-2.021-5.585-3.998-11.187-6.224-16.695-1.614-3.998-3.36-7.932-5.524-11.67-2.963-5.116-6.533-9.743-10.965-13.681-1.562-1.388-3.249-2.595-5.117-3.539-2.912-1.47-6.001-2.167-9.257-2.034-2.81 0.114-5.502 0.788-8.104 1.851-1.279 0.523-2.481 1.176-3.57 2.031-1.892 1.488-3.246 3.358-3.963 5.663-0.634 2.033-0.662 4.094-0.207 6.165 0.095 0.431 0.189 0.856 0.171 1.258-0.129 0.078-0.185 0.134-0.251 0.148-0.253 0.055-0.508 0.11-0.765 0.141-3.339 0.402-6.408 1.55-9.255 3.322-1.997 1.244-3.798 2.731-5.458 4.392-2.792 2.792-5.295 5.828-7.534 9.079-1.224 1.777-2.29 3.648-3.183 5.615-2.086 4.596-2.969 9.395-2.435 14.433 0.014 0.134-0.021 0.273-0.029 0.359-0.098 0.066-0.126 0.097-0.159 0.103-0.108 0.023-0.219 0.055-0.327 0.055-2.402-6e-3 -4.737-0.38-6.956-1.331-3.965-1.701-6.8-4.576-8.68-8.425-1.084-2.216-1.737-4.575-2.237-6.981-0.045-0.217-0.054-0.442-0.073-0.664-0.057-0.667 0.146-1.25 0.596-1.739 0.277-0.299 0.573-0.583 0.874-0.857 2.391-2.175 4.794-4.338 7.175-6.522 4.365-4.005 8.319-8.383 11.885-13.112 7.496-9.94 12.5-20.938 14.182-33.35 0.517-3.809 0.678-7.622 0.089-11.437-0.365-2.358-0.984-4.647-1.965-6.831-0.675-1.503-1.542-2.881-2.718-4.046-2.38-2.356-5.226-3.14-8.489-2.502-1.55 0.303-2.974 0.924-4.323 1.726-1.344 0.797-2.589 1.736-3.771 2.758m145 49.453c0.979-2.284 1.918-4.481 3.39-6.624 1.372-1.996 4.473-2.997 6.715-2.167 1.2 0.445 2.116 1.223 2.588 2.442 0.384 0.986 0.29 1.963-0.116 2.924-0.388 0.915-1.023 1.624-1.814 2.208-1.715 1.265-3.649 1.964-5.76 2.153-1.634 0.146-3.253 0.064-4.867-0.224-0.1-0.018-0.2-0.033-0.4-0.078 0.07-0.179 0.196-0.477 0.264-0.634m-44.81 10.366c0.231-1.319 0.573-2.608 1.066-3.853 0.163-0.413 0.344-0.825 0.575-1.2 0.214-0.343 0.619-1.015 0.916-1.287 0.899-0.822 2.144-1.418 3.578-0.794 0.435 0.189 0.978 0.825 1.26 1.199 2.235 2.952 2.323 6.272 2.053 9.39-0.403 4.644-0.982 6.116-1.993 9.295-1.027 3.226-2.429 5.095-3.763 6.521-0.087 0.094-0.148 0.147-0.255 0.247-0.153-0.235-0.308-0.442-0.434-0.667-1.786-3.177-2.874-6.574-3.259-10.205-0.305-2.897-0.245-5.777 0.256-8.646m-58.132-11.927c1.021-0.301 2.058-0.268 3.079-0.024 1.864 0.446 3.544 1.294 5.065 2.453 1.882 1.434 3.571 3.107 4.628 5.21 0.03 0.063 0.056 0.092 0.149 0.287-0.073 0.046-0.32 0.394-0.463 0.508-1.682 1.641-1.648 1.705-3.759 2.892-0.381 0.214-1.75 0.773-2.297 0.891-0.692 0.148-1.188 0.29-1.994 0.337-0.258 0.015-1.224 0.044-1.7-0.044-1.814-0.334-3.198-1.02-4.318-1.887-1.405-1.087-1.945-2.213-2.153-3.903-0.384-3.139 1.349-6.008 3.763-6.72m-6.456 12.798c1.081-0.09 2.141 0.042 3.185 0.348 1.477 0.435 2.802 1.154 4.019 2.085 0.14 0.108 0.252 0.251 0.365 0.366-0.604 1.211-1.765 2.562-2.719 3.226-1.849 1.29-4.2 0.901-5.576-0.279-0.169-0.145-0.33-0.299-0.482-0.461-0.796-0.848-1.879-2.77-2.289-4.072 1.039-0.751 2.227-1.107 3.497-1.213m-16.436 17.306c1.333-3.193 2.955-6.231 5.019-9.022 0.551-0.746 1.086-1.504 1.634-2.252 0.105-0.144 0.239-0.266 0.394-0.436 0.329 0.247 0.618 0.468 0.911 0.682 1.407 1.029 2.786 2.099 4.23 3.075 1.743 1.177 3.668 1.936 5.766 2.215 1.81 0.241 3.625 0.256 5.444 0.123 0.771-0.056 1.542-0.119 2.4-0.103-0.024 0.387-0.018 0.711-0.067 1.025-0.579 3.563-1.45 7.045-2.893 10.367-1.206 2.774-2.759 5.336-4.74 7.629-2.479 2.867-5.535 4.797-9.254 5.612-1.634 0.358-3.288 0.582-4.97 0.36-2.449-0.325-4.187-1.587-5.158-3.875-0.544-1.281-0.744-2.635-0.827-4.011-0.239-3.97 0.59-7.748 2.111-11.389m-9.764-72.628c1.317-0.702 2.459-0.326 3.21 0.966 0.341 0.586 0.524 1.225 0.651 1.886 0.409 2.123 0.543 4.27 0.589 6.024-0.045 5.092-0.938 9.627-2.496 14.037-2.051 5.812-4.896 11.225-8.267 16.369-3.7 5.644-8.002 10.801-12.691 15.643-1.162 1.202-2.359 2.37-3.542 3.551-0.184 0.184-0.369 0.366-0.563 0.541-0.304 0.274-0.597 0.352-0.787 0.209-0.259-0.193-0.169-0.467-0.149-0.718 0.277-3.298 0.789-6.553 1.575-9.775 2.249-9.218 5.143-18.218 8.921-26.926 2.205-5.081 4.691-10.021 7.464-14.816 1.235-2.136 2.707-4.09 4.487-5.797 0.479-0.459 1.017-0.886 1.598-1.194" fill="#FFFFFF"></path>
<path d="m385.69 127.74c2.006 0.053 4.007 0.051 6.007-0.187 2.783-0.331 5.479-0.979 8.058-2.078 5.517-2.355 9.688-6.249 12.828-11.303 0.568-0.917 1.001-1.905 1.31-2.943 1.351-4.533 0.375-8.502-2.915-11.896-1.016-1.05-2.207-1.872-3.493-2.554-2.81-1.489-5.805-2.23-8.984-2.243-1.941-8e-3 -3.852 0.271-5.74 0.678-6.269 1.351-11.405 4.521-15.313 9.629-2.321 3.038-4.055 6.39-5.231 10.022-0.841 2.595-1.263 5.26-1.239 7.999 0.042 4.947 1.496 9.431 4.419 13.415 3.118 4.25 7.229 7.21 12.126 9.1 3.282 1.268 6.686 1.689 10.178 1.279 3.101-0.364 5.983-1.409 8.685-2.969 2.659-1.533 5.011-3.456 7.1-5.693 1.064-1.141 2.08-2.326 3.113-3.495 0.095-0.106 0.153-0.246 0.241-0.391-0.12-0.236-0.234-0.46-0.359-0.709-0.364 0.023-0.693 0.064-1.021 0.058-1.002-0.018-1.893 0.303-2.731 0.82-1.739 1.071-3.484 2.13-5.223 3.2-0.538 0.33-1.053 0.7-1.598 1.014-4.344 2.508-8.862 2.746-13.499 0.947-2.564-0.994-4.569-2.732-6.179-4.941-1.433-1.965-2.465-4.141-3.345-6.397-0.052-0.13-0.045-0.283-0.088-0.576 0.574 0.035 1.017 0.053 1.456 0.087 0.476 0.037 0.955 0.113 1.437 0.127m-1.441-8.434c1.728-3.607 3.797-6.98 6.676-9.803 1.683-1.651 3.565-3.027 5.659-4.112 1.734-0.901 3.57-1.47 5.525-1.594 0.584-0.038 1.193 2e-3 1.767 0.124 1.486 0.315 2.339 1.425 2.37 2.952 0.017 0.876-0.233 1.687-0.563 2.479-1.225 2.952-3.111 5.394-5.685 7.291-4.139 3.051-8.764 4.257-13.871 3.587-0.479-0.064-0.955-0.142-1.432-0.224-0.178-0.03-0.353-0.091-0.572-0.15 0.044-0.203 0.051-0.392 0.126-0.55" fill="#FFFFFF"></path>
<path d="m438.85 114.46c0.886-1.535 2.046-2.822 3.538-3.793 0.21-0.138 0.449-0.231 0.721-0.368 0.234 0.339 0.448 0.637 0.65 0.943 0.591 0.899 1.158 1.816 1.772 2.699 0.508 0.731 1.026 1.461 1.613 2.128 1.271 1.448 2.879 2.166 4.826 2.121 1.257-0.028 2.426-0.368 3.511-0.959 3.149-1.716 5.439-4.229 6.742-7.575 1.155-2.966 0.742-5.82-1.149-8.33-2.858-3.792-6.792-5.096-11.417-4.463-1.491 0.204-2.836 0.831-4.123 1.603-3.072 1.843-6.406 2.719-9.991 2.568-1.036-0.043-2.077-0.127-3.104-0.271-3.407-0.476-6.521-1.703-9.282-3.776-0.564-0.423-1.085-0.902-1.636-1.341-0.126-0.102-0.297-0.145-0.473-0.228-0.068 0.216-0.117 0.355-0.157 0.497-1 3.496-2.002 6.99-2.996 10.488-0.047 0.163-0.026 0.345-0.042 0.598 0.948-0.014 1.833 0.011 2.719-0.117 1.077-0.156 2.148-0.104 3.211 0.125 1.669 0.36 3.034 1.208 3.968 2.648 0.4 0.618 0.756 1.29 0.987 1.985 0.949 2.841 1.404 5.767 1.263 8.766-0.065 1.409-0.201 2.814-0.331 4.219-0.347 3.783-1.094 7.487-2.272 11.101-1.483 4.542-2.04 9.189-1.536 13.949 0.019 0.174-0.026 0.378 0.172 0.491 0.925-0.274 2.238-1.059 4.453-2.661 3.274-2.368 7.99-6.55 8.986-7.983-0.034-0.119-0.063-0.265-0.119-0.397-1.289-3.101-2.151-6.318-2.676-9.629-0.492-3.108-0.529-6.212 0.106-9.305 0.412-2.006 1.033-3.947 2.066-5.733" fill="#FFFFFF"></path>
<path d="m347.97 241.98c0.034 0.398 0.082 0.808-1e-3 1.198 0.077 1.368 0.302 2.721 0.673 4.036 0.176 0.446 0.347 0.894 0.498 1.347 0.175 0.528 0.374 1.042 0.582 1.55 1.056 2.244 2.501 4.201 4.147 6.045 1.433 1.605 3.14 3.055 5.411 3.066 1.914 0.01 4.046-0.722 5.08-2.397 0.978-1.578 1.672-3.303 2.373-5.019 0.051-0.535 0.16-1.06 0.345-1.569 0.448-1.231 0.801-2.478 0.573-3.801 0-0.566 0.047-1.129-9e-3 -1.68-0.242-2.401-0.556-4.793-1.106-7.146-0.594-2.536-1.354-5.018-2.519-7.356-0.646-1.303-1.42-2.524-2.387-3.616-0.847-0.956-1.805-1.779-2.993-2.27-0.576-0.239-1.198-0.463-1.811-0.5-1.819-0.105-3.523 0.396-5.14 1.213-0.1 0.048-0.191 0.116-0.28 0.181-0.28 0.2-0.455 0.449-0.549 0.802-0.152 0.57-0.362 1.127-0.588 1.672-0.412 0.994-0.89 1.964-1.276 2.966-1.126 2.919-1.664 5.924-1.232 9.062 0.103 0.732 0.148 1.475 0.209 2.216" fill="#FFFFFF"></path>
<path d="m453.19 220.39c-0.023-0.109-0.074-0.21-0.117-0.313-0.434-1.021-1.131-1.29-2.15-0.815-0.841 0.392-1.433 1.047-1.877 1.843-0.664 1.188-0.966 2.479-1.09 3.824-0.066 0.715-2e-3 1.419 0.293 2.073 0.417 0.93 0.405 1.862 0.171 2.829-0.14 0.574-0.247 1.152-0.318 1.736 2e-3 0.021 3e-3 0.041 5e-3 0.063 5e-3 0.036 0.01 0.075 0.014 0.114 4e-3 0.018 0.014 0.09 0.016 0.098 0.02 0.12 0.043 0.241 0.072 0.359 0.025 0.1 0.055 0.199 0.089 0.294 8e-3 0.023 0.017 0.045 0.024 0.066 4e-3 8e-3 7e-3 0.014 0.012 0.025 0.023 0.043 0.045 0.09 0.069 0.133 0.024 0.042 0.052 0.083 0.077 0.124 0.01 0.016 0.017 0.025 0.021 0.031 8e-3 8e-3 0.015 0.018 0.021 0.025 0.04 0.043 0.079 0.086 0.123 0.124 9e-3 0.01 0.068 0.055 0.075 0.061 0.032 0.021 0.064 0.043 0.099 0.063 0.017 0.01 0.141 0.066 0.138 0.068 0.052 0.018 0.105 0.031 0.158 0.047 0.022 6e-3 0.033 0.01 0.04 0.014 6e-3 -2e-3 0.017-2e-3 0.038-2e-3h4e-3c0.113-0.053 0.22-0.115 0.323-0.186 0.126-0.194 0.252-0.391 0.374-0.588 0.371-0.597 0.659-1.257 1.085-1.81 1.136-1.47 1.818-3.139 2.306-4.904 0.498-1.806 0.288-3.604-0.095-5.396" fill="#FFFFFF"></path>
<path d="m333.28 214.75c-0.203-0.213-0.442-0.401-0.694-0.553-0.76-0.458-1.375-0.242-1.686 0.575-0.217 0.568-0.249 1.16-0.223 1.758 0.044 1.043-0.033 2.072-0.203 3.104-0.206 1.243-0.345 2.498-0.513 3.748-0.042 1.02 0.233 1.919 0.941 2.66 0.844 0.888 1.802 0.87 2.583-0.061 0.282-0.336 0.513-0.729 0.714-1.125 0.61-1.194 1.003-2.473 1.357-3.762 0.159-0.576 0.161-1.165 0.068-1.765-0.275-1.789-1.106-3.289-2.344-4.579" fill="#FFFFFF"></path>
<path d="m326.75 208.35c-0.065-0.016-0.1-0.027-0.136-0.037 7e-3 0.021 0.013 0.057 0.023 0.057 0.025 3e-3 0.053-7e-3 0.113-0.02" fill="#FFFFFF"></path>
</svg>
